<svg width="250" height="250" viewBox="0 0 250 250" fill="none" xmlns="http://www.w3.org/2000/svg">
<g id="Favicon">
<rect width="250" height="250" rx="30" fill="#262626"/>
<g id="Vector">
<path d="M124.91 19.0581L124.768 19C124.382 20.8974 124.378 22.8166 124.375 24.7382V24.7414C124.373 25.6938 124.371 26.6478 124.323 27.5995L123.168 42.6318C123.131 43.1555 123.112 43.7175 123.092 44.2954C123.036 45.9428 122.976 47.7216 122.485 49.1227C122.147 50.0903 121.381 50.9185 120.535 51.4811C119.641 52.0758 118.673 52.4014 117.685 52.7335C117.37 52.8393 117.053 52.9458 116.736 53.0619C116.633 53.0998 116.527 53.1361 116.42 53.1725L116.419 53.1729C115.84 53.3712 115.24 53.5762 114.898 54.0876C115.054 54.5263 115.07 54.5338 115.446 54.7108L115.47 54.7221L115.514 54.7432C115.87 54.9123 116.254 55.0131 116.638 55.1141C116.87 55.1751 117.102 55.2362 117.329 55.3124C120.074 56.2352 121.396 56.7928 122.403 59.6118C122.803 60.731 122.852 61.8615 122.902 63.0088V63.0109C122.922 63.4815 122.943 63.9555 122.988 64.4322L124.172 76.0697C124.229 76.5992 124.263 77.1404 124.296 77.6831L124.297 77.6843L124.297 77.6855L124.297 77.6866L124.297 77.6876C124.352 78.5766 124.408 79.4701 124.566 80.3234C124.659 80.8255 124.729 80.9698 125.101 81.3134C125.29 81.1142 125.469 80.8811 125.541 80.6122C125.741 79.8633 125.759 78.9495 125.776 78.0584C125.787 77.5316 125.797 77.0125 125.845 76.5402L127.091 65.3608C127.163 64.6747 127.186 63.9896 127.209 63.3112L127.209 63.3099C127.267 61.5782 127.324 59.883 128.199 58.2832C129.352 56.1765 132.042 55.3589 134.377 54.6492C134.86 54.5024 135.328 54.3601 135.764 54.2121C135.178 53.9419 134.464 53.6815 133.704 53.4041C131.261 52.5123 128.333 51.4439 127.584 49.3053C127.262 48.3855 127.195 47.269 127.134 46.2364C127.118 45.9678 127.103 45.7048 127.083 45.4524L126.598 36.2787C126.546 35.5193 126.437 34.7654 126.328 34.0114C126.24 33.4035 126.152 32.7955 126.094 32.1843L125.702 25.2121L125.514 20.7758C125.509 20.6986 125.507 20.5873 125.505 20.4622L125.505 20.4608C125.5 20.1385 125.493 19.7249 125.421 19.5643C125.335 19.3767 125.091 19.151 124.91 19.0581Z" fill="white"/>
<path d="M143.598 41.5954L147.825 32.9187L148.054 33.1527C148.117 33.8939 147.936 34.4935 147.742 35.1342C147.661 35.4045 147.577 35.6821 147.508 35.9808C147.283 36.9598 147.018 37.9383 146.753 38.9194C146.11 41.296 145.463 43.6878 145.366 46.137C145.363 46.2236 145.355 46.3226 145.347 46.4263C145.325 46.6934 145.302 46.9943 145.342 47.205C145.467 47.8645 146.716 49.1114 147.564 49.9589C147.792 50.1859 147.99 50.3843 148.131 50.5351C148.021 50.534 147.89 50.5312 147.745 50.528C146.666 50.5043 144.76 50.4624 144.163 50.994C142.542 52.4364 141.707 54.1146 140.801 55.938C140.612 56.3174 140.42 56.7038 140.217 57.0949C140.021 57.4738 139.816 57.8392 139.613 58.2011L139.612 58.2024C139.223 58.8968 138.838 59.5835 138.522 60.3486C138.483 60.316 138.439 60.287 138.395 60.2581C138.307 60.2002 138.219 60.1423 138.166 60.0549C137.921 59.6553 138.554 56.703 139.071 54.2883C139.361 52.9378 139.614 51.7553 139.658 51.2811C139.661 51.2427 139.665 51.2028 139.67 51.1618L139.677 51.0997L139.684 51.0374L139.684 51.0334L139.685 51.0317C139.736 50.584 139.799 50.0369 139.599 49.6837C138.864 48.3776 138.003 47.5353 136.921 46.5096C137.114 46.3331 137.534 46.2902 137.887 46.2541C138.002 46.2424 138.11 46.2314 138.2 46.2167C139.212 46.0524 140.195 45.7968 141.183 45.5321C142.151 44.5899 142.629 43.5946 143.157 42.4946L143.158 42.4924L143.159 42.4903C143.298 42.1998 143.442 41.9016 143.598 41.5954Z" fill="white"/>
<path fill-rule="evenodd" clip-rule="evenodd" d="M107.807 53.3577C108.085 53.929 108.36 54.4948 108.769 54.9448C109.049 55.46 109.315 56.0101 109.583 56.5664C110.209 57.8676 110.855 59.2083 111.77 60.2482L112.017 60.0565C111.999 59.4787 111.875 59.0214 111.743 58.5371C111.678 58.2985 111.611 58.0523 111.555 57.7828L110.679 52.9376L110.673 52.8892L110.667 52.8404C110.664 52.8103 110.66 52.7803 110.657 52.7511L110.654 52.7259C110.464 51.0546 110.313 49.7183 111.453 48.2871L113.144 46.3528C112.918 46.3321 112.696 46.3144 112.481 46.2971C110.663 46.1515 109.217 46.0357 107.898 44.4699C107.245 43.6954 106.202 41.3626 105.156 39.0223C103.909 36.2321 102.656 33.431 102.056 33.2473C101.769 33.8327 102.091 34.8027 102.353 35.5909L102.353 35.5924C102.432 35.8281 102.504 36.0476 102.554 36.2355L103.47 40.2452C103.568 40.6621 103.704 41.1418 103.85 41.6568C104.374 43.5094 105.029 45.8204 104.547 47.3129C104.309 48.0518 103.517 48.829 102.786 49.5463C102.393 49.9326 102.017 50.3017 101.754 50.638C101.937 50.6305 102.123 50.6206 102.311 50.6105C103.815 50.5303 105.465 50.4423 106.619 51.5217C107.16 52.0271 107.485 52.6961 107.807 53.3577ZM110.679 52.9376L110.673 52.9686L110.656 53.0566L110.665 53.0012C110.667 52.9894 110.67 52.9784 110.672 52.9671C110.674 52.9576 110.677 52.9479 110.679 52.9376Z" fill="white"/>
<path d="M88.1736 49.4671C87.0371 47.923 86.0981 46.1536 85.169 44.4026C84.687 43.4944 84.2075 42.5908 83.7046 41.7265C83.4886 41.3558 83.2358 40.9866 82.9817 40.6154C82.5643 40.0058 82.142 39.389 81.8682 38.7449C81.6683 38.2744 81.634 37.8172 81.8222 37.3409L82.1751 37.3334C82.3796 37.9439 82.8268 38.4921 83.258 39.0205C83.4315 39.2333 83.6025 39.4428 83.7539 39.6519L89.3619 47.1843L95.8605 55.5522C96.0765 55.8278 96.3022 56.1401 96.5362 56.4638C97.1455 57.3068 97.8122 58.229 98.5172 58.7944C99.0315 59.2068 99.9029 59.4508 100.554 59.5503C101.364 59.674 102.32 59.5178 103.277 59.3615C104.014 59.241 104.752 59.1204 105.424 59.128C105.356 59.2188 105.287 59.3101 105.218 59.402C104.096 60.8919 102.867 62.5254 102.534 64.3841C103.185 66.4815 104.278 68.4101 105.361 70.3234C105.489 70.5486 105.616 70.7736 105.743 70.9986C105.976 71.4138 106.19 71.8417 106.403 72.2691C106.658 72.7821 106.914 73.2949 107.205 73.786C107.364 74.0531 107.552 74.3023 107.74 74.5516C107.948 74.8275 108.156 75.1034 108.324 75.4034C108.462 75.6507 108.56 75.9172 108.657 76.1836C108.737 76.4006 108.816 76.6176 108.918 76.824L112.578 83.739C112.848 84.2289 113.135 84.6939 113.418 85.1518C114.1 86.256 114.763 87.3285 115.124 88.6648L114.89 88.9486C113.86 88.1098 113.147 87.0009 112.433 85.8919C112.095 85.3666 111.758 84.841 111.386 84.3439L107.786 79.8396L100.901 70.451C100.719 70.2191 100.541 69.9634 100.359 69.7021C99.8499 68.9731 99.3106 68.2002 98.5959 67.7781L98.4395 67.681C97.0894 66.9107 95.0257 67.3087 93.2379 67.6535C92.5507 67.786 91.9042 67.9107 91.3547 67.9581C91.5674 67.6991 91.7863 67.4431 92.0051 67.1872C93.3878 65.5698 94.7638 63.9603 94.5132 61.6755C94.3664 60.3335 93.4947 58.9256 92.7267 57.6852L92.7261 57.6842C92.5498 57.3996 92.3788 57.1234 92.2236 56.8592C91.9979 56.4751 91.7656 56.0839 91.5322 55.6911L91.5191 55.6691C90.3256 53.6598 89.0721 51.5498 88.1736 49.4671Z" fill="white"/>
<path fill-rule="evenodd" clip-rule="evenodd" d="M138.384 84.8493C138.233 85.078 138.081 85.315 137.926 85.5557C137.236 86.6309 136.498 87.7802 135.578 88.5993L135.533 88.6396L135.49 88.6781C135.248 88.8985 135.125 89.0105 134.749 88.9851C134.62 88.152 135.63 86.5384 136.389 85.3252C136.639 84.9253 136.862 84.5688 137.008 84.2983L141.252 76.5394L144.896 69.8145C145.005 69.608 145.113 69.4041 145.22 69.2021L145.222 69.1977C146.099 67.5409 146.913 66.0039 147.378 64.1327C147.343 64.0182 147.308 63.903 147.274 63.7885C147.03 62.9806 146.79 62.1819 146.242 61.517L144.387 58.962C144.901 58.9964 145.497 59.0974 146.127 59.2042C147.949 59.5131 150.061 59.8711 151.331 58.8126C152.217 58.0754 152.925 57.1397 153.626 56.2136C153.933 55.8078 154.239 55.4037 154.558 55.0187C156.562 52.5971 158.428 50.0393 160.294 47.4805C162.938 43.8566 165.583 40.2302 168.627 36.984C168.202 38.6077 167.418 39.8736 166.593 41.2065C166.321 41.6467 166.044 42.0945 165.773 42.5646L159.444 53.7864C159.143 54.3185 158.792 54.8951 158.426 55.4969C157.311 57.3292 156.049 59.4016 155.6 61.2092C155.244 62.644 155.272 63.4364 156.033 64.6878C156.196 64.9564 156.503 65.2977 156.831 65.6613C157.425 66.3212 158.085 67.0545 158.071 67.559C157.629 67.7857 157.194 67.693 156.732 67.5948C156.576 67.5614 156.416 67.5274 156.252 67.5051C155.147 67.3549 152.952 67.0785 151.937 67.5383C150.005 68.4133 146.222 73.9669 143.919 77.3485C143.383 78.1356 142.927 78.805 142.593 79.2704L138.384 84.8493ZM138.384 84.8493C138.365 84.8431 138.344 84.8378 138.326 84.8317L138.28 84.8171L138.258 84.8101C138.298 84.8231 138.341 84.8357 138.384 84.8493Z" fill="white"/>
<path d="M193.823 110.682C194.438 111.227 195.07 111.786 195.528 112.339C195.615 112.334 195.713 112.332 195.815 112.331C196.225 112.326 196.708 112.32 196.942 112.035C198.02 110.724 198.268 107.684 197.988 106.026C197.889 105.44 197.716 104.868 197.543 104.297C197.395 103.809 197.248 103.321 197.146 102.823C196.903 101.635 196.897 100.363 196.963 99.1547C197.02 98.1148 197.279 97.0944 197.537 96.0758C197.92 94.568 198.302 93.0641 198.025 91.507C197.899 90.7964 197.549 89.906 197.177 88.9584C196.445 87.0908 195.625 85.001 196.255 83.6286C196.322 83.6421 196.375 83.6499 196.418 83.6564C196.585 83.6812 196.62 83.6863 196.779 83.9066C197.414 84.7845 198.293 85.7071 199.217 86.6764C201.567 89.1424 204.204 91.9105 203.839 95.0122C203.817 95.1956 203.768 95.3242 203.701 95.4952L203.454 95.4636C203.414 95.3751 203.374 95.2853 203.335 95.1954C203.086 94.6218 202.833 94.0394 202.27 93.7102C201.501 93.9982 200.796 95.2794 200.447 96.037C199.487 98.1191 199.181 101.861 200.006 104.008C200.591 105.535 201.58 107.772 203.013 108.655L203.016 108.662C203.235 109.269 203.343 109.568 203.035 110.198C202.728 110.823 202.279 111.362 201.831 111.9C201.352 112.474 200.874 113.047 200.57 113.725C200.389 114.13 200.261 114.564 200.219 115.004C200.174 115.482 200.232 115.983 200.291 116.48C200.329 116.809 200.368 117.137 200.376 117.457C200.39 117.999 200.368 118.588 200.346 119.192C200.293 120.614 200.236 122.125 200.637 123.331C200.792 123.798 200.947 124.139 201.314 124.478L201.32 124.478C201.85 124.481 202.038 124.482 202.453 124.089C202.807 123.752 203.097 123.242 203.364 122.774L203.365 122.772C203.448 122.626 203.529 122.484 203.608 122.353L205.759 117.882L206.729 117.735C207.01 117.811 207.294 117.888 207.579 117.925C206.473 119.466 205.584 121.184 204.862 122.933C203.694 126.728 203.343 130.855 205.658 134.341C205.774 134.516 205.917 134.699 206.065 134.888C206.464 135.397 206.899 135.952 206.94 136.526L206.945 136.714C206.99 137.578 206.568 138.41 206.171 139.194C206.128 139.279 206.085 139.364 206.043 139.448C206.009 139.517 205.975 139.587 205.942 139.655C205.389 140.806 204.869 141.968 204.592 143.219C204.543 143.44 204.499 143.475 204.377 143.573C204.356 143.59 204.332 143.609 204.305 143.632C204.295 143.64 204.285 143.649 204.274 143.658C204.011 143.089 204.145 142.421 204.275 141.77C204.336 141.467 204.395 141.169 204.415 140.885C204.54 139.02 204.454 136.739 203.651 135.021C203.24 134.139 202.337 133.319 201.558 132.611L201.556 132.61C201.394 132.462 201.237 132.319 201.09 132.182L200.939 132.04C198.225 129.49 194.809 126.281 194.026 122.534C193.79 121.404 193.667 119.479 194.329 118.505C194.528 119.058 194.581 119.645 194.633 120.228C194.649 120.409 194.666 120.591 194.686 120.77C194.854 122.231 195.883 123.58 196.776 124.75C196.847 124.843 196.916 124.934 196.984 125.024C197.043 125.05 197.102 125.077 197.161 125.104L197.258 125.148C197.847 125.418 198.431 125.686 199.093 125.699L199.453 125.232C199.965 122.216 197.203 116.881 195.487 114.463L195.353 114.271C194.423 113.171 193.298 112.2 192.131 111.356C191.869 111.203 191.609 111.045 191.348 110.887L191.346 110.885C190.271 110.233 189.185 109.575 187.972 109.239C187.121 109.003 186.184 108.962 185.282 108.924C185.078 108.915 184.876 108.906 184.676 108.895C184.707 109.181 184.781 109.465 184.856 109.75C184.953 110.119 185.05 110.487 185.051 110.859C185.053 111.299 184.852 111.867 184.679 112.358C184.625 112.508 184.575 112.651 184.533 112.781C185.277 114.213 186.292 115.275 187.398 116.431L187.443 116.479C185.435 115.511 184.17 114.581 182.699 112.902C181.13 111.11 180.411 109.083 180.6 106.678C180.679 105.671 180.841 104.183 181.697 103.537C182.331 103.059 183.208 103.033 183.963 103.164C187.394 103.758 190.794 106.987 192.761 109.709C193.08 110.025 193.449 110.351 193.823 110.682Z" fill="white"/>
<path fill-rule="evenodd" clip-rule="evenodd" d="M20.7577 157.469C22.1419 158.951 23.8148 159.738 25.6548 160.499C25.4367 160.133 25.1855 159.79 24.9353 159.448C24.467 158.808 24.0019 158.173 23.7615 157.402L23.7063 157.219C25.8948 155.949 29.0391 156.407 31.4291 157.023C36.0913 158.224 41.0319 160.569 44.913 163.39C45.0314 163.476 45.1566 163.564 45.2853 163.655C45.945 164.119 46.6963 164.648 47.1015 165.283C47.2737 165.552 47.3448 165.848 47.4075 166.157C46.8657 166.667 45.9959 166.764 45.2467 166.766C44.4061 166.769 43.467 166.482 42.612 166.22C42.4132 166.16 42.2186 166.1 42.0312 166.046L41.3263 165.646L41.1448 165.553C40.2433 165.085 39.3326 164.419 38.9162 163.475C38.8111 163.237 38.6733 163.079 38.5046 162.885L38.4914 162.87L38.141 162.838C37.9227 163.815 38.2355 164.782 38.7623 165.608C39.1879 166.274 39.6661 166.617 40.349 166.999L41.5095 167.422C43.1903 167.939 44.9044 168.049 46.6164 168.156C48.0292 168.245 49.4415 168.333 50.8312 168.652C51.6388 168.837 52.4533 169.281 53.2688 169.725L53.2698 169.725L53.2739 169.727C53.9318 170.086 54.5906 170.445 55.2466 170.667C56.6244 171.135 58.0655 171.415 59.5103 171.695C61.005 171.985 62.5041 172.276 63.9412 172.777C64.3258 172.911 64.7666 173.097 65.2351 173.295C66.5617 173.855 68.1102 174.509 69.2281 174.339L69.2264 174.018C68.6569 173.659 68.0454 173.386 67.4332 173.114C67.0422 172.94 66.6503 172.765 66.2694 172.568L61.0444 169.709C60.6174 169.485 60.188 169.273 59.7599 169.061L59.7548 169.058C58.678 168.525 57.6074 167.994 56.6031 167.306C55.0419 166.236 54.0095 164.914 52.9128 163.51C52.6561 163.181 52.3954 162.847 52.1241 162.512C51.0695 161.208 49.9013 160.02 48.6762 158.874C46.956 157.263 45.0033 155.696 43.0222 154.424C42.6035 154.156 42.1661 153.926 41.73 153.697C41.0086 153.317 40.2904 152.94 39.6671 152.393C42.8307 152.916 46.021 154.732 48.4437 156.804C48.9678 157.252 49.4536 157.736 49.9402 158.221C50.4658 158.744 50.9931 159.27 51.5696 159.75L53.6386 161.999L55.3947 163.721C55.5881 163.915 55.7871 164.119 55.991 164.328L56.0778 164.417C57.4265 165.799 58.9888 167.401 60.6288 168.156C62.0271 169.307 63.498 170.002 65.1747 170.652L61.6449 166.9C61.4343 166.374 61.159 165.887 60.8808 165.395L60.8504 165.342L60.6539 164.987C59.9901 163.655 59.7254 161.884 59.4922 160.323C59.4455 160.01 59.3998 159.705 59.3527 159.414L58.549 153.477L58.5443 153.43C58.3907 151.917 58.2178 150.213 58.7849 148.763C58.9856 148.25 59.2682 147.727 59.8168 147.521C60.6079 147.223 62.4627 147.506 63.2405 147.836L65.6957 148.801C64.5317 147.266 63.0046 145.804 61.4475 144.663C61.1192 144.423 60.756 144.188 60.3854 143.949C59.4943 143.374 58.5594 142.77 57.9637 141.99L57.834 141.81C57.6944 141.619 57.5756 141.449 57.4711 141.235C56.2394 138.708 57.1866 136.35 58.1454 133.964L58.2003 133.827C58.2422 134.304 58.2113 134.774 58.1804 135.244C58.1533 135.657 58.1262 136.07 58.1485 136.488C58.2171 137.781 58.9781 139.138 59.9322 139.998L60.3144 139.82C60.9464 137.55 62.537 136.081 64.1375 134.604C65.3136 133.518 66.4951 132.428 67.3055 131.01C68.3985 129.099 68.391 126.883 67.8198 124.82C67.543 123.82 66.7093 122.773 66.0202 122.014C63.963 119.748 61.2201 117.579 58.5265 116.096C57.676 115.627 55.9006 114.926 54.9682 115.191C54.9682 115.887 55.6055 116.554 56.2588 117.238C56.8086 117.814 57.3698 118.401 57.5723 119.028C58.1844 120.921 58.0097 123.257 56.7603 124.852C56.6084 125.046 56.4375 125.245 56.2628 125.448C55.8355 125.946 55.3849 126.47 55.1321 127.013C54.8252 127.673 54.7508 128.755 55.0259 129.428C55.5877 129.631 56.1813 129.389 56.8178 129.13C57.5675 128.825 58.3767 128.496 59.2641 128.838L59.4045 129.21C58.7428 130.571 57.327 131.639 55.9895 132.648C55.3886 133.101 54.803 133.543 54.3092 133.993C52.4853 135.658 50.4148 137.952 50.3119 140.536C50.2241 142.742 50.7802 145.813 52.4494 147.435C52.8089 147.784 52.9114 147.788 53.3344 147.802L53.4092 147.805L53.4412 147.806C54.1364 147.271 54.2829 146.56 54.4466 145.765C54.477 145.617 54.5081 145.467 54.5434 145.314L54.7775 145.277C55.0417 146.071 54.9964 146.936 54.9528 147.768C54.9477 147.866 54.9426 147.963 54.9381 148.06C54.8901 149.078 54.7422 150.091 54.5945 151.102C54.4356 152.191 54.277 153.277 54.2431 154.367C54.1721 156.662 54.7048 158.958 55.7677 160.991L56.261 162.081L55.9224 162.16L54.8971 161.429C54.7884 161.231 54.5501 161.023 54.3415 160.84C54.2696 160.777 54.2007 160.716 54.1424 160.661C53.1004 159.353 52.3925 157.829 51.8122 156.277C51.6532 154.774 50.8027 152.316 49.6119 151.331C49.2099 150.998 48.2759 151.106 47.7812 151.164L47.7563 151.167L45.8036 151.535C45.2776 151.399 44.9431 151.293 44.5584 150.903C44.5061 150.754 44.4549 150.607 44.4044 150.462C43.5715 148.073 42.9269 146.224 40.403 144.993C39.8302 144.714 39.3385 144.744 38.7389 144.908C38.7094 144.944 38.6817 144.975 38.656 145.004C38.56 145.111 38.4927 145.186 38.4729 145.361C38.3684 146.291 37.911 147.45 37.211 148.094C36.6742 148.224 36.2861 148.217 35.7978 147.933C35.4857 147.751 35.1943 147.489 34.917 147.239C34.8506 147.179 34.7838 147.119 34.719 147.062C33.9707 146.406 33.9432 145.201 33.9171 144.06C33.9004 143.329 33.8843 142.623 33.6787 142.107C33.2708 141.084 32.4165 140.362 31.5543 139.633C30.7233 138.931 29.8849 138.222 29.4321 137.231C29.1047 136.515 29.0247 135.816 28.9441 135.113C28.8846 134.593 28.8247 134.07 28.6645 133.536C28.6103 133.645 28.5555 133.753 28.5005 133.863C27.709 135.435 26.8782 137.086 27.5046 138.894C27.6518 139.32 27.8531 139.73 28.0545 140.141C28.3048 140.651 28.5552 141.162 28.7021 141.702C29.1821 143.468 28.4554 145.9 27.7086 147.519C27.5996 147.755 27.4395 148.06 27.2583 148.404L27.2578 148.405C26.5825 149.69 25.6144 151.532 25.9031 152.476C25.945 152.614 26.0087 152.739 26.0821 152.86C26.0202 152.877 25.9586 152.895 25.8973 152.914C25.9846 152.938 26.0722 152.96 26.1601 152.982L26.1925 153.03C25.6609 153.363 24.851 153.338 24.1357 153.316C23.9192 153.31 23.7085 153.303 23.5198 153.308C22.2679 153.334 21.2042 153.451 20.0719 154.032C20.0653 154.197 20.0534 154.371 20.0412 154.55C19.9782 155.47 19.9059 156.526 20.5001 157.203L20.7577 157.469ZM26.1601 152.982C27.1274 153.218 28.125 153.328 29.1224 153.437C29.7018 153.501 30.2829 153.565 30.8563 153.654C31.6516 153.801 32.39 153.924 33.2012 153.903L33.5014 153.649L33.498 153.176C32.5966 152.496 30.592 152.362 29.4932 152.402C29.2763 152.422 29.0577 152.441 28.8383 152.459C27.912 152.534 26.971 152.611 26.0821 152.86C26.1071 152.901 26.1333 152.941 26.1601 152.982ZM40.4137 166.935L40.4102 166.939C40.5368 166.816 40.6588 166.697 40.7512 166.558C40.6596 166.696 40.5384 166.814 40.4137 166.935Z" fill="white"/>
<path fill-rule="evenodd" clip-rule="evenodd" d="M27.5793 117.099C27.2365 115.961 26.9488 114.091 27.1358 112.926C27.2016 112.515 27.2439 112.11 27.2859 111.708C27.3703 110.9 27.4534 110.104 27.7237 109.298L28.0473 109.153L28.7885 114.812C29.0344 115.545 29.5561 116.905 30.0845 117.469C30.4244 117.832 30.8939 118.129 31.3436 118.413C31.5256 118.528 31.7043 118.641 31.8699 118.756C31.9455 118.808 32.0505 118.871 32.1651 118.94C32.4283 119.097 32.7416 119.285 32.8634 119.441C33.1973 119.868 33.2076 120.509 33.2185 121.189C33.2313 121.989 33.245 122.845 33.7874 123.474C34.1236 123.863 34.7458 124.133 35.2484 124.188C35.5794 124.224 35.6939 124.12 35.8842 123.947C35.9303 123.905 35.981 123.859 36.0403 123.81C36.7346 121.535 35.5507 120.495 34.2716 119.37C33.5571 118.742 32.813 118.088 32.3499 117.179C32.2751 115.605 32.6541 114.593 33.1846 113.177L33.2481 113.007C33.4663 112.423 33.815 111.353 33.5616 110.737C33.3749 110.281 33.0177 109.887 32.6569 109.489C32.2958 109.09 31.931 108.687 31.7302 108.216C31.001 106.505 31.2787 104.165 31.9527 102.496C32.6903 100.672 34.6956 97.8975 36.5948 97.1C36.5563 97.1955 36.5172 97.2941 36.4783 97.3921L36.4765 97.3967C36.2597 97.9441 36.0316 98.5198 35.7276 99.0094C35.5961 99.2214 35.4472 99.4243 35.2983 99.6272C34.9513 100.1 34.6048 100.573 34.4807 101.156C34.0252 103.301 35.6931 105.055 37.3719 106.82C38.7818 108.303 40.1994 109.793 40.3738 111.531L40.3922 111.779C40.4918 113.076 40.2236 114.362 39.9535 115.658C39.7156 116.799 39.4763 117.947 39.4849 119.116C39.5034 121.652 40.632 122.752 42.0427 124.128C42.4799 124.554 42.9443 125.007 43.4111 125.537C44.275 126.519 44.9431 127.669 45.5252 128.83L45.5322 128.844L45.5413 128.862L45.5659 128.911C45.6469 129.07 45.7254 129.225 45.7677 129.403C45.9191 130.043 45.9559 130.917 45.8605 131.566C45.7441 132.357 45.4963 133.156 45.2483 133.955C45.0529 134.584 44.8573 135.215 44.7257 135.842C44.6633 136.14 44.6474 136.488 44.6312 136.843C44.6023 137.477 44.5724 138.132 44.275 138.557L43.8928 138.596C41.8822 136.338 40.9987 133.615 40.109 130.871C39.7338 129.715 39.3576 128.555 38.8953 127.425C38.3768 129.474 38.6302 132.407 39.2959 134.377C40.5419 138.062 42.6777 141.308 45.5386 143.965C45.673 144.09 45.8045 144.219 45.9363 144.35C46.3618 144.77 46.7901 145.193 47.329 145.461L47.5606 145.218C46.655 142.012 46.987 138.527 47.6777 135.315C47.8065 134.716 47.9593 134.111 48.1125 133.504C48.713 131.125 49.3272 128.692 48.5951 126.273C48.2614 125.169 47.7429 123.929 46.6391 123.386C45.9099 123.025 44.7031 122.676 43.9254 123.002L43.7975 123.064C43.2708 122.901 43.03 122.573 42.7283 122.162L42.6593 122.068C41.6165 120.655 40.6406 117.999 41.0228 116.221C41.1582 115.591 41.7294 114.983 42.2696 114.662C44.0241 114.323 45.2149 114.764 46.4208 116.089C46.5165 116.194 46.607 116.3 46.6957 116.404C47.0432 116.81 47.3669 117.189 47.9018 117.403L48.284 117.073C47.6716 114.258 45.1544 112.11 42.7662 110.072C41.6617 109.13 40.5847 108.211 39.7366 107.26C39.0935 106.539 38.2556 105.501 38.1042 104.524C37.8174 102.669 38.7364 101.184 39.7968 99.7438C39.842 99.9325 39.8849 100.147 39.9303 100.373C40.094 101.19 40.2901 102.168 40.7426 102.701C40.9952 103 41.4785 103.071 41.8481 103.093C42.9319 103.162 43.8401 102.967 44.6546 102.211C45.1422 101.759 45.322 101.257 45.3278 100.6C44.8546 99.7186 43.7791 99.3665 42.7158 99.0185C41.8585 98.7379 41.0093 98.4599 40.4901 97.9091C40.2777 97.6842 40.2785 97.5365 40.3011 97.2519C40.4215 95.7247 41.901 94.7486 43.2488 93.8593C43.7633 93.5199 44.259 93.1929 44.6521 92.853L44.6875 92.8225C45.1622 92.4137 45.676 91.9712 45.72 91.3161C45.3354 90.9761 44.8 91.0059 44.274 91.0351C44.129 91.0432 43.9837 91.0512 43.8435 91.0514L43.5106 90.6921C44.0898 88.2747 47.091 87.7293 49.9603 87.2079C51.6897 86.8937 53.3712 86.5881 54.4456 85.8866C56.0579 84.8335 57.0622 83.9306 58.1611 82.3166L58.4178 82.4179C58.289 84.3182 57.1392 86.138 56.1014 87.6989C55.9227 87.9676 55.7141 88.2361 55.5021 88.5092C54.8269 89.3786 54.1158 90.294 54.2189 91.4099L54.6262 92.1841C56.2807 95.611 54.7835 98.7644 53.3059 101.876C52.7894 102.964 52.277 104.049 51.9008 105.136L51.0704 109.564C51.0733 109.733 51.0745 109.906 51.0757 110.081C51.0822 111.019 51.0892 112.024 51.3606 112.894C51.6131 113.701 52.1069 114.464 52.5861 115.203L52.5869 115.205C52.7739 115.493 52.9587 115.778 53.1259 116.062C54.1838 117.852 55.0125 120.497 54.8035 122.578C54.5618 124.994 53.3708 126.978 52.1687 128.981C51.607 129.917 51.0428 130.857 50.572 131.847C49.6812 133.719 49.2493 135.66 48.805 137.656L48.7665 137.829C48.3626 139.641 48.0942 141.92 48.6068 143.73C48.7309 144.168 48.7699 144.628 48.8089 145.089C48.8451 145.516 48.8814 145.943 48.9856 146.354C49.1495 146.998 49.3861 147.627 49.6246 148.26C49.8865 148.956 50.1508 149.658 50.3236 150.394C49.9552 150.056 49.615 149.707 49.2771 149.361C48.7054 148.775 48.1406 148.196 47.4578 147.685C45.9337 146.546 44.3402 145.515 42.7468 144.484C40.7461 143.189 38.7454 141.895 36.8824 140.386C34.9716 138.838 33.1828 136.884 31.6742 134.953C30.5168 133.472 29.2951 131.735 29.2006 129.802C29.1373 128.511 29.3598 127.234 29.5811 125.963L29.5813 125.962C29.6468 125.586 29.7122 125.21 29.77 124.835C29.7897 124.708 29.8122 124.577 29.8351 124.444C29.9439 123.809 30.0627 123.117 29.9356 122.513C29.7416 121.588 29.2741 120.768 28.7988 119.933C28.2968 119.053 27.7861 118.156 27.579 117.105L27.5793 117.099ZM51.4836 104.535L51.4929 104.553L51.4879 104.542L51.4836 104.535ZM51.4676 104.334L51.4715 104.415L51.4712 104.405L51.4709 104.39L51.4704 104.374L51.4698 104.361L51.4676 104.334ZM50.8672 102.638L49.9891 106.821C49.88 107.462 49.8792 108.212 49.8783 108.974L49.8783 108.987C49.8769 110.185 49.8755 111.412 49.4573 112.293L49.1997 112.149L48.4646 109.32C47.4494 104.9 47.8207 98.6211 50.3529 94.7134C50.3752 94.6789 50.4036 94.6313 50.436 94.577C50.5795 94.3361 50.8061 93.9558 50.9793 93.9193C50.9473 94.0884 50.9145 94.2582 50.8816 94.4286C50.6289 95.7353 50.3703 97.0729 50.4717 98.3995C50.5111 98.9167 50.6001 99.4184 50.6885 99.9166C50.8472 100.812 51.0031 101.696 50.8672 102.638Z" fill="white"/>
<path d="M153.251 165.029C153.891 164.913 154.529 164.798 155.15 164.612C155.208 164.586 155.266 164.56 155.321 164.534C155.535 164.434 155.732 164.342 155.946 164.301V161.641C155.755 161.748 155.564 161.854 155.373 161.96L155.368 161.962L155.346 161.974C154.759 162.299 154.17 162.624 153.598 162.978L149.258 164.928L149.258 165.934L149.258 165.999H149.816L149.817 165.999C150.409 165.766 151.001 165.534 151.602 165.373C152.144 165.228 152.695 165.129 153.246 165.03L153.251 165.029Z" fill="white"/>
<path d="M155.519 165.702L155.52 165.702C155.657 165.593 155.807 165.475 155.946 165.356V165.999H155.156C155.248 165.917 155.376 165.815 155.517 165.704L155.519 165.702Z" fill="white"/>
<path d="M160.647 163.285C161.626 162.568 162.586 161.806 163.522 161.004L163.056 156.79C161.245 158.189 159.373 159.492 157.507 160.711C157.282 160.858 157.054 160.999 156.824 161.137L157.089 165.827C158.069 165.191 159.018 164.489 159.939 163.808L159.94 163.807L160.377 163.484L160.508 163.388L160.647 163.285Z" fill="white"/>
<path fill-rule="evenodd" clip-rule="evenodd" d="M167.395 168.999H161.597C155.211 174.006 147.907 177.984 140.67 181.332C139.769 181.749 138.875 182.213 137.98 182.677C136.734 183.325 135.485 183.973 134.211 184.497C134.041 184.567 133.866 184.641 133.688 184.716C132.1 185.387 130.238 186.174 128.57 185.458C127.301 184.913 126.637 183.51 126.162 182.286C126.053 182.008 125.978 181.745 125.904 181.488C125.767 181.012 125.636 180.56 125.318 180.08L124.903 180.115C124.562 180.651 124.304 181.302 124.039 181.967C123.432 183.493 122.794 185.098 121.06 185.581C120.234 185.812 119.165 185.661 118.356 185.434C116.258 184.848 114.151 183.764 112.134 182.727C111.508 182.405 110.889 182.087 110.284 181.791C109.811 181.559 109.339 181.328 108.867 181.097L108.833 181.081C104.144 178.791 99.5254 176.535 95.1038 173.712C92.7973 172.24 90.6169 170.674 88.5531 168.999H82.9146V163.852C80.8814 161.764 78.9781 159.527 77.1919 157.121L77.1689 157.09C75.7817 155.223 74.02 152.852 73.2582 150.679C72.12 148.484 71.0796 145.876 70.4951 143.478C70.365 142.944 70.2501 142.392 70.1342 141.836L70.1337 141.834C69.8706 140.571 69.6025 139.284 69.1412 138.127L69.0559 138.209C68.9765 139.02 69.0624 139.695 69.1553 140.425C69.1887 140.686 69.2229 140.955 69.2507 141.24L69.2513 141.247C69.4977 143.767 69.7069 145.908 70.349 148.384C70.9871 150.818 71.7178 153.379 72.7924 155.662C76.6634 163.888 83.8385 170.629 91.0571 176.017L98.448 181.146L105.468 186.419L117.901 195.587C118.669 196.159 119.421 196.747 120.173 197.333L120.174 197.334C121.744 198.559 123.311 199.782 125.003 200.857L126.152 200.193C127.178 199.537 128.123 198.767 129.069 197.997C129.683 197.497 130.298 196.996 130.934 196.528L144.479 186.507C146.442 185.069 148.472 183.645 150.521 182.206C156.334 178.125 162.308 173.931 167.395 168.999ZM71.64 149.008C71.6228 148.418 71.469 147.901 71.3027 147.342L71.2913 147.304L71.3058 147.349C71.4712 147.905 71.6237 148.42 71.64 149.008Z" fill="white"/>
<path d="M91.6104 165.999C90.4353 165.132 89.3206 164.234 88.2832 163.314C87.4531 162.579 86.6691 161.832 85.9146 161.068V158.392C89.2457 161.525 93.0622 164.063 97.1785 165.999H91.6104Z" fill="white"/>
<path d="M82.9146 155.23V157.794C82.5107 157.324 82.1089 156.846 81.706 156.36C81.5115 156.125 81.3122 155.889 81.1115 155.652L81.099 155.637C80.215 154.591 79.3027 153.512 78.6578 152.329C76.6985 149.206 75.276 146.132 74.0701 142.661C73.2776 140.586 72.8683 138.23 72.518 136.044C72.094 133.417 72.0195 130.291 72.4753 127.674C72.841 125.326 73.5579 123.076 74.2766 120.82L74.2789 120.813C74.3631 120.549 74.4472 120.285 74.5308 120.021L74.9205 119.759C75.1622 120.281 74.6219 122.5 74.1652 124.376C73.9013 125.46 73.6654 126.429 73.6243 126.89C73.2371 131.251 73.5331 135.935 74.7264 140.145L74.7601 140.286C74.777 140.358 74.7937 140.429 74.8105 140.5C74.9823 141.232 75.1542 141.965 75.4892 142.641C75.7713 143.21 75.9848 143.817 76.1984 144.425C76.3831 144.95 76.5679 145.476 76.7971 145.977C77.5272 147.569 78.4855 149.126 79.4088 150.614C80.5239 152.161 81.6723 153.749 82.9146 155.23Z" fill="white"/>
<path d="M96.1264 168.999C101.017 171.923 106.477 174.223 111.611 175.343C116.296 176.364 121.422 176.588 126.201 176.305C131.008 176.018 135.67 175.094 140.27 173.764C140.425 173.719 140.601 173.677 140.785 173.633C141.428 173.479 142.182 173.299 142.556 172.881C141.976 172.764 141.3 172.92 140.676 173.064C140.483 173.109 140.294 173.152 140.115 173.186C139.429 173.315 138.761 173.376 138.086 173.438C137.75 173.469 137.411 173.501 137.067 173.54C136.815 173.569 136.563 173.609 136.314 173.648L136.311 173.649C135.338 173.802 134.383 173.952 133.44 173.477L133.397 173.185C133.441 173.14 133.486 173.094 133.531 173.048L133.658 172.918C134.151 172.411 134.673 171.874 135.256 171.5C135.797 171.153 136.394 170.872 136.991 170.591C137.469 170.365 137.948 170.14 138.399 169.88C137.425 169.763 136.423 169.867 135.44 169.97C135.235 169.991 135.03 170.013 134.827 170.032L127.772 170.822C121.832 171.319 115.816 170.92 109.946 169.946C108.447 169.697 106.961 169.381 105.495 168.999H96.1264Z" fill="white"/>
<path d="M166.911 164.36L167.421 168.974C170.585 165.904 173.404 162.547 175.626 158.755C178.023 154.663 179.576 150.032 180.59 145.423C180.641 145.12 180.693 144.816 180.745 144.512C181.24 141.624 181.746 138.672 181.428 135.772C181.3 136.353 181.223 136.944 181.146 137.533C181.06 138.192 180.974 138.848 180.82 139.487C180.589 140.436 180.299 141.37 180.009 142.305C179.679 143.369 179.348 144.434 179.104 145.523L179.001 145.771L178.96 145.869L178.958 145.873L178.956 145.878L178.888 146.041C177.702 148.897 176.531 151.715 174.917 154.379C172.684 158.066 169.967 161.374 166.911 164.36Z" fill="white"/>
<path d="M165.824 154.528L166.26 158.474C171.053 153.705 174.979 147.876 177.179 141.669C178.243 138.668 178.815 135.61 179.29 132.473C178.572 133.871 178.113 135.362 177.652 136.857C177.234 138.213 176.815 139.573 176.202 140.868C175.085 143.224 173.898 145.511 172.34 147.617C170.475 150.135 168.243 152.43 165.824 154.528Z" fill="white"/>
<path d="M128.784 82.2544L126.89 82.3L126.673 82.8859L126.948 83.3307C127.933 83.5549 128.979 83.6016 130.015 83.648C130.548 83.6718 131.078 83.6955 131.595 83.7431L136.002 84.3306L136.127 83.6112C136.094 83.577 136.05 83.5254 136.001 83.4677C135.882 83.3278 135.733 83.1526 135.64 83.1091C135.373 82.9843 134.843 82.9432 134.395 82.9085C134.2 82.8933 134.02 82.8793 133.884 82.8602C133.505 82.8067 133.123 82.7489 132.741 82.6909C131.428 82.492 130.102 82.291 128.784 82.2544Z" fill="white"/>
<path d="M115.703 82.2901L121.488 82.1806C121.592 82.183 121.704 82.1815 121.819 82.18C122.339 82.1732 122.934 82.1653 123.262 82.5084L123.248 82.6027C123.151 83.2551 123.131 83.3878 122.652 83.9025L120.085 84.2908L114.542 85.2982C114.102 84.7121 113.768 84.0119 113.444 83.3316L113.444 83.3307C113.348 83.1293 113.253 82.9294 113.156 82.7349L115.703 82.2901Z" fill="white"/>
<path d="M224.576 152.942C224.895 153.014 225.296 153.072 225.732 153.135C227.02 153.321 228.608 153.551 229.255 154.316C229.658 154.791 229.515 155.728 229.416 156.375L229.399 156.488C229.394 156.522 229.389 156.555 229.384 156.586C229.087 157.11 228.744 157.35 228.375 157.607C228.146 157.767 227.907 157.934 227.663 158.18C227.353 158.493 227.079 158.877 226.802 159.263C226.305 159.958 225.798 160.668 225.045 161.016C224.547 161.247 224.297 161.281 223.786 161.081C223.79 160.573 224.047 160.242 224.319 159.891C224.509 159.646 224.706 159.391 224.831 159.06L224.895 158.875C225.136 158.196 224.914 157.611 224.676 156.982L224.674 156.977C224.645 156.899 224.615 156.82 224.586 156.741C224.19 156.427 223.807 156.26 223.336 156.081C223.31 156.071 223.277 156.057 223.24 156.042C223.217 156.032 223.192 156.021 223.166 156.009L223.106 155.982C222.855 155.871 222.518 155.722 222.377 155.727C222.198 155.735 221.874 155.889 221.6 156.019L221.598 156.02C221.481 156.076 221.374 156.127 221.291 156.16C220.254 156.579 219.324 157.138 218.393 157.698L218.386 157.701C217.554 158.201 216.721 158.702 215.81 159.102C217.172 157.254 219.492 154.995 221.643 154.103C221.953 153.975 222.321 153.927 222.684 153.879C223.071 153.829 223.451 153.779 223.749 153.634C223.918 153.552 224.143 153.34 224.338 153.156C224.383 153.114 224.426 153.073 224.467 153.036C224.486 153.018 224.505 153.001 224.523 152.985C224.534 152.976 224.545 152.967 224.556 152.958L224.567 152.949L224.576 152.942Z" fill="white"/>
<path fill-rule="evenodd" clip-rule="evenodd" d="M78.7522 75.8689C82.3858 73.6931 85.7685 71.9546 89.908 70.8559L90.2575 70.9505C89.9733 71.6005 88.6411 72.2777 87.4629 72.8766C86.8211 73.2028 86.225 73.5058 85.8688 73.7686C84.1394 75.0449 82.6392 76.4863 81.5972 78.3783C80.385 80.5787 80.3072 82.9838 80.2298 85.3806C80.1627 87.4563 80.0959 89.5257 79.2925 91.4506C79.1549 91.781 78.8736 92.0045 78.5926 92.2278C78.5202 92.2853 78.4476 92.343 78.3777 92.4023C77.9136 92.8015 77.5088 92.9708 76.9251 93.1509C76.6103 92.7933 76.5502 92.2855 76.4901 91.778C76.4576 91.5034 76.4251 91.229 76.3522 90.9784C76.2151 90.5062 75.9993 90.2183 75.5452 90.0017C74.6513 89.576 73.1778 89.761 72.2613 90.0598C71.3324 90.3624 70.5745 90.924 69.8044 91.4946C69.6973 91.5739 69.5863 91.6562 69.4782 91.7352C67.176 93.4173 65.6163 94.935 64.3461 97.4834C64.7261 97.4348 65.3865 96.954 65.9321 96.5568C66.1775 96.3782 66.4001 96.2162 66.563 96.1184C68.2581 95.1018 70.802 94.0347 72.8199 94.0521C73.7088 94.0596 75.1162 94.2637 75.7309 94.9159C75.3406 95.1437 74.9893 95.0713 74.5768 94.9864C74.5023 94.971 74.4259 94.9553 74.3469 94.9408L73.6026 94.828C70.9174 94.6786 67.9913 97.1698 66.1474 98.9124C64.811 100.176 63.5499 102.052 63.4948 103.915C63.9309 104.314 64.4568 104.399 65.0001 104.487C65.4111 104.553 65.8321 104.62 66.2318 104.827L66.3012 105.241C65.112 106.937 63.1792 107.346 61.2468 107.755C59.7876 108.063 58.3286 108.372 57.1902 109.235C56.8933 109.459 56.5178 109.86 56.4718 110.233C56.2613 111.939 58.055 113.127 59.7104 114.222C60.5932 114.807 61.4366 115.365 61.9159 115.962C59.7776 115.248 56.4468 113.587 55.1363 111.665C53.3518 109.05 53.3718 106.264 54.9565 103.536C55.2908 102.961 55.6537 102.415 56.0136 101.873C56.9251 100.502 57.8169 99.1596 58.1736 97.4486C58.4777 95.9905 58.2725 94.5043 58.0669 93.0145C57.919 91.9438 57.771 90.8712 57.8115 89.8059C57.8153 89.7071 57.8158 89.5964 57.8164 89.4805C57.8179 89.161 57.8196 88.8026 57.8901 88.5512C58.0962 87.8159 58.7311 87.3075 59.3467 86.8146C59.6927 86.5375 60.0326 86.2653 60.2869 85.9604C60.5823 85.6066 60.8474 85.2265 61.1126 84.8462C61.5543 84.2127 61.9968 83.5781 62.5799 83.0643C63.1268 82.5822 63.5382 82.2868 64.2674 82.3175C64.3765 82.7137 64.3212 82.8345 64.1943 83.1116C64.1654 83.1746 64.1329 83.2457 64.0977 83.3299C63.4872 84.792 63.0607 87.1106 63.7966 88.5976C63.9823 88.9719 64.3109 89.1768 64.704 89.3038C65.1949 89.4631 66.3715 89.5743 66.8038 89.225C67.3541 88.7799 67.6856 87.8058 67.9096 87.1477L67.9227 87.1089C68.0467 86.745 68.1767 86.2868 68.3203 85.781C68.8735 83.8324 69.6275 81.1762 71.0044 80.472L71.3021 80.6122C71.5163 81.1754 71.4406 81.6092 71.3407 82.1814L71.3397 82.1872C71.2969 82.433 71.3189 82.4677 71.4053 82.6037C71.4268 82.6376 71.4524 82.6778 71.4819 82.7291C71.9024 82.5874 72.2376 82.1405 72.5317 81.7483C72.6148 81.6376 72.6947 81.531 72.7722 81.437C73.5608 80.4819 74.3879 79.5426 75.2685 78.6696C76.1283 77.8164 77.1379 77.0674 78.1235 76.3362L78.2902 76.2127C78.4453 76.0979 78.6 75.9834 78.7522 75.8689ZM78.7471 75.8943C78.735 75.9555 78.7239 76.0242 78.7121 76.0966C78.7181 76.0595 78.725 76.0188 78.7309 75.9841L78.7327 75.9736L78.7354 75.9579L78.7374 75.9464L78.7444 75.9083L78.7471 75.8943Z" fill="white"/>
<path d="M107.612 83.7049C107.306 83.6742 107.038 83.7107 106.739 83.7705C104.803 84.2966 102.338 85.0285 100.897 86.4749C100.432 86.9424 100.06 87.5863 99.7173 88.1805C99.65 88.2971 99.5838 88.4118 99.5183 88.5229C100.646 90.6705 102.246 91.5609 104.538 92.282C105.348 92.536 106.203 92.7816 107.043 92.9086L112.749 93.8247C112.548 93.6349 112.293 93.4139 112.015 93.173C111.069 92.3543 109.858 91.3052 109.609 90.4647C109.729 89.2092 110.23 88.2928 110.82 87.2126L110.887 87.0898L108.821 84.5771C108.79 84.5366 108.742 84.4621 108.684 84.3745C108.538 84.1512 108.335 83.8423 108.237 83.7904C108.151 83.7456 107.896 83.7267 107.727 83.7143C107.697 83.7121 107.67 83.7101 107.647 83.7082L107.622 83.706L107.612 83.7049Z" fill="white"/>
<path d="M129.541 62.0832L129.557 62.0843C129.968 62.1141 130.443 62.1486 130.767 62.4207C131.172 62.7613 131.529 63.2382 131.871 63.6945C132.017 63.8895 132.161 64.0811 132.304 64.2563C133.1 65.2322 133.974 66.1607 134.861 67.0561C136.524 68.7367 138.352 70.1203 140.2 71.5194C140.875 72.0305 141.553 72.5436 142.226 73.074L140.412 76.3668C140.095 76.5435 139.877 76.5322 139.566 76.516L139.514 76.5134L139.473 76.5114L139.449 76.5103C139.42 76.509 139.39 76.5079 139.358 76.507C136.183 74.6582 133.529 72.4583 130.93 69.8891C130.787 69.7476 130.637 69.6046 130.484 69.4594C129.839 68.8446 129.152 68.1898 128.765 67.4312L128.666 67.2329C128.643 67.1922 128.622 67.155 128.601 67.1198C128.508 66.9611 128.439 66.8425 128.42 66.6238C128.317 65.394 128.72 63.063 129.492 62.078C129.5 62.0786 129.508 62.0795 129.516 62.0805L129.528 62.0819L129.541 62.0832Z" fill="white"/>
<path d="M119.741 62.1124C120.072 62.114 120.404 62.1155 120.649 62.3593C121.482 63.1934 121.476 65.0117 121.472 66.3608V66.3677C121.471 66.6224 121.47 66.8608 121.475 67.0719C118.546 71.2269 114.253 74.2026 110.126 77.063C109.292 76.3827 108.762 75.2559 108.265 74.1959C108.089 73.8225 107.918 73.4568 107.738 73.1222C108.804 72.1106 110.031 71.2173 111.261 70.3221C112.27 69.5885 113.28 68.8535 114.204 68.0511C115.618 66.8236 116.806 65.3633 117.988 63.9094C118.483 63.3018 118.976 62.6957 119.486 62.1071C119.57 62.1117 119.655 62.1121 119.741 62.1124Z" fill="white"/>
<path d="M151.539 76.888C150.128 76.4104 148.618 75.8995 147.332 75.9369C147.169 76.2196 146.916 76.5625 146.644 76.9314L146.633 76.9463C146.028 77.7673 145.333 78.71 145.316 79.3807C145.354 79.4264 145.388 79.4732 145.422 79.5193C145.545 79.6853 145.661 79.8417 145.871 79.8969C147.155 80.2355 148.432 80.8162 149.663 81.3763L149.664 81.3771C149.908 81.4878 150.15 81.598 150.39 81.7051C153.374 83.0369 156.256 84.4758 158.981 86.2882C159.595 86.6968 160.183 87.1393 160.771 87.5811C161.908 88.4351 163.041 89.2867 164.347 89.8871L164.329 89.8524L164.287 89.77C163.987 89.1822 163.659 88.5403 163.506 87.9064C163.449 87.6724 163.442 87.2727 163.436 86.8666C163.427 86.3481 163.419 85.819 163.305 85.6111C163.224 85.4636 162.456 85.0198 161.856 84.6736C161.545 84.4939 161.279 84.3404 161.179 84.2684L157.069 81.5814C156.807 81.4159 156.552 81.3556 156.301 81.2964C155.962 81.2161 155.631 81.138 155.304 80.8022C156.239 80.532 157.284 80.8869 158.267 81.2204C158.675 81.3591 159.073 81.4941 159.447 81.5789L163.277 82.2594C163.295 82.06 163.322 81.8422 163.35 81.6151C163.443 80.8641 163.549 80.0105 163.364 79.3824C161.91 79.0597 160.456 78.8172 159.002 78.5746C157.136 78.2634 155.266 77.9514 153.4 77.4713C152.822 77.3223 152.191 77.1087 151.539 76.888Z" fill="white"/>
<path d="M140.452 87.1886C140.044 87.1512 139.633 87.177 139.226 87.2185L139.168 87.6276C139.454 87.7254 139.799 87.7902 140.159 87.8576C141.011 88.0172 141.942 88.1916 142.349 88.8549C142.27 89.5694 141.97 89.9353 141.402 90.3909C140.246 91.3183 138.368 91.9234 136.889 92.4001L136.673 92.4697L136.497 92.5269C136.079 92.6632 135.665 92.804 135.254 92.9435L135.253 92.9441C134.012 93.3659 132.791 93.7811 131.485 94.0645L131.53 94.3201C132.404 94.5227 133.586 94.2686 134.723 94.0239C135.422 93.8737 136.104 93.727 136.688 93.6919C143.903 93.2571 151.779 93.2181 158.523 96.1076C160.167 96.8126 161.657 97.7348 163.163 98.6673L163.33 98.7707C163.833 98.7903 164.333 98.8357 164.823 98.9117C160.518 95.0134 155.583 91.9544 150.034 89.7386C147.016 88.5329 143.705 87.4931 140.452 87.1886Z" fill="white"/>
<path d="M101.596 75.9925L102.224 76.005C103.228 76.3502 104.31 78.3036 104.808 79.2454C104.793 79.2695 104.778 79.2943 104.763 79.3194C104.75 79.3418 104.737 79.3645 104.725 79.3872C104.669 79.4871 104.612 79.5875 104.53 79.6653C104.439 79.7521 104.126 79.8498 103.861 79.9324C103.729 79.9739 103.608 80.0116 103.534 80.0421L100.478 81.33C98.0816 82.3424 95.7743 83.5431 93.4989 84.797C90.592 86.3994 87.8332 88.4681 85.2684 90.556L85.4398 87.4524C85.4541 86.6658 85.531 85.9986 86.1599 85.4434C86.3071 85.3131 86.4651 85.2152 86.6324 85.1123C87.2416 84.6387 87.9105 84.2589 88.5799 83.8788C88.8651 83.7169 89.1506 83.5547 89.4313 83.3854C89.5795 83.2961 89.7272 83.2068 89.8747 83.1176L89.8846 83.1116C91.3515 82.2244 92.7915 81.3534 94.3711 80.6769L94.3753 80.3375L94.05 80.2346L93.4194 80.657C92.3167 80.5803 90.7468 81.0627 89.4334 81.4662C89.0556 81.5823 88.6991 81.6919 88.381 81.7797C88.2254 81.8228 88.0668 81.8791 87.9065 81.9359C87.4335 82.1038 86.9452 82.277 86.4718 82.1332C86.3541 81.5343 86.4312 81.3945 86.6989 80.9093L86.7223 80.8667L86.7478 80.8204C86.7696 80.7806 86.7947 80.734 86.8224 80.6826C87.0256 80.3051 87.3702 79.6651 87.6242 79.4687C88.263 78.973 89.8934 78.7855 91.091 78.6478C91.4531 78.6061 91.776 78.569 92.0195 78.5293C94.6722 78.0983 97.2242 77.3203 99.7817 76.5405C100.385 76.3565 100.99 76.1722 101.596 75.9925Z" fill="white"/>
<path d="M92.6592 90.8971L92.9812 91.1676C92.9157 91.3486 92.8318 91.5325 92.7473 91.7178L92.7469 91.7187C92.6105 92.0178 92.4722 92.3209 92.4067 92.6215C92.2687 93.2604 92.4426 93.5426 92.7713 94.0529C94.8249 95.0889 97.0324 95.1092 99.2485 95.1296C100.685 95.1428 102.126 95.156 103.531 95.4462C102.399 95.9013 101.178 96.0797 99.9596 96.2577L99.9586 96.2579L99.9576 96.2581C99.0844 96.3856 98.2116 96.5131 97.3741 96.7424C95.2657 97.3189 93.2083 98.0437 91.216 98.9077C90.5817 98.8058 89.9313 98.7592 89.2733 98.7592H82.6608C85.5177 95.7216 88.7812 93.1063 92.6592 90.8971Z" fill="white"/>
<path d="M77.6333 105.096C77.1679 105.784 76.7127 106.489 76.266 107.209C76.1505 107.395 76.0237 107.596 75.8901 107.807C75.0777 109.09 74.0181 110.764 73.7539 112.063C73.7037 112.311 73.7405 112.576 73.789 112.821C74.2237 112.658 74.7508 111.749 75.1725 111.021C75.3455 110.723 75.5008 110.455 75.6246 110.282C76.209 109.464 76.9104 108.711 77.6333 107.989V105.096Z" fill="white"/>
<path d="M85.6933 101.759H80.6333V105.3C82.2411 104.008 83.9318 102.824 85.6933 101.759Z" fill="white"/>
<path d="M63.197 151.652C63.4061 152.731 63.3754 153.883 63.3445 155.04C63.2991 156.742 63.2534 158.454 63.9714 159.959C65.3062 162.757 67.8324 163.613 70.4814 164.511L70.4825 164.511C70.8307 164.629 71.1853 164.75 71.5353 164.874L71.6596 164.917C72.5192 165.219 74.5147 165.921 74.7993 166.651L74.8402 166.782C75.0824 167.539 74.7716 168.83 74.5059 169.934C74.4009 170.37 74.303 170.777 74.249 171.11C74.9873 171.306 75.7538 171.386 76.5147 171.466C77.3111 171.55 78.1018 171.634 78.8476 171.848C78.8814 171.857 78.9182 171.867 78.9575 171.878C78.9942 171.888 79.0329 171.898 79.0732 171.909C79.4215 172.002 79.8878 172.126 80.1145 172.282C80.6558 172.658 81.1712 173.692 81.5534 174.459C81.6478 174.648 81.734 174.821 81.8105 174.964C82.484 176.22 83.6028 177.196 84.6991 178.151L84.7006 178.153C85.0571 178.463 85.412 178.773 85.7476 179.089L83.8242 178.25C82.9954 177.817 82.0676 177.523 81.1441 177.23C80.5573 177.044 79.9688 176.858 79.4121 176.637C73.9705 174.484 67.2194 171.418 63.958 166.359C61.5211 162.58 62.237 155.787 63.197 151.652Z" fill="white"/>
<path d="M27.7296 164.25C28.5159 164.699 29.2677 165.157 30.0078 165.608C32.3701 167.048 34.6126 168.415 37.4762 169.185C38.616 169.493 39.7868 169.75 40.9659 169.84C42.0939 169.927 43.2373 169.937 44.3821 169.948C46.1126 169.964 47.8461 169.98 49.5342 170.258C49.5904 170.268 49.6466 170.277 49.7028 170.285L49.8139 170.303L49.8171 170.303C50.4959 170.409 51.166 170.513 51.7219 170.951C51.5143 171.297 50.7728 171.321 50.0592 171.343C49.6023 171.358 49.1568 171.372 48.8702 171.47C48.0331 171.755 47.7965 172.131 47.4553 172.881C47.8065 173.684 48.6846 173.953 49.5258 174.077C50.9826 174.291 52.4678 174.169 53.944 174.047L53.9491 174.047L53.9569 174.046C54.6076 173.992 55.2567 173.939 55.9006 173.915C61.0344 173.724 67.5773 174.649 71.9761 177.432L72.2035 177.806L71.864 178.032L71.1005 177.87C69.7089 177.547 68.4132 177.714 67.0626 177.888C66.7892 177.923 66.5135 177.959 66.2343 177.991C65.8615 178.034 65.4737 178.003 65.0844 177.972H65.0803C64.7548 177.946 64.428 177.92 64.1085 177.938C62.1224 178.043 59.6789 178.413 57.7663 178.923C57.0671 179.109 56.3425 179.367 55.6042 179.63C53.7359 180.296 51.7794 180.993 49.9256 180.637C47.4653 180.164 45.465 178.921 43.6185 177.3C43.329 177.045 43.0422 176.772 42.7532 176.498C42.1492 175.923 41.5352 175.34 40.8655 174.892C40.2293 174.467 39.4878 174.22 38.7388 173.969C38.0634 173.744 37.3815 173.516 36.7654 173.155C35.5034 172.414 34.4301 171.307 33.3909 170.236C33.0852 169.92 32.7824 169.608 32.4787 169.309C32.0659 168.903 31.6562 168.518 31.2532 168.139C29.975 166.936 28.764 165.797 27.7296 164.25Z" fill="white"/>
<path d="M164.543 60.5752C164.22 60.5277 163.914 60.436 163.609 60.3444C163.27 60.2427 162.929 60.1407 162.569 60.1005C162.656 60.6598 162.732 60.7967 163.212 61.127C163.712 61.4711 164.42 61.6658 165.111 61.8558C165.556 61.9783 165.994 62.0989 166.366 62.2564C168.226 63.0472 170.818 65.5923 171.602 67.4818C171.937 68.2894 172.128 69.2458 172.307 70.1457C172.352 70.3748 172.397 70.6002 172.443 70.8186L172.494 71.0597C172.948 73.2144 173.355 75.1473 175.388 76.4755C176.826 77.4149 178.293 77.6513 179.819 77.8971C180.512 78.0087 181.217 78.1223 181.937 78.3044C183.222 78.6296 184.401 79.2053 185.584 79.7835L185.803 79.8902L184.948 78.6165C184.521 77.9608 183.778 77.2924 183.006 76.5981C181.659 75.3866 180.223 74.0955 180.227 72.655C180.43 72.3703 180.645 72.2495 180.843 72.1389C181.116 71.9856 181.355 71.8517 181.478 71.3289L180.388 69.5979C184.298 71.3472 186.459 73.1213 188.013 77.1618L188.327 78.0505C189.91 81.6287 191.851 85.1015 195.293 87.1678C194.993 86.7436 194.633 86.3233 194.27 85.9C193.493 84.9935 192.694 84.0607 192.383 82.9805C191.981 81.5821 192.078 80.77 192.212 79.6425C192.25 79.3234 192.291 78.9791 192.325 78.5891C192.544 76.0415 192.7 73.0674 191.235 70.8551C190.552 69.8236 189.813 69.0892 188.714 68.4843C186.981 67.5318 185.108 66.9714 183.234 66.4104C182.008 66.0437 180.782 65.6767 179.593 65.1998C178.493 64.7583 177.474 64.216 176.461 63.6769C174.838 62.8125 173.229 61.9562 171.324 61.5361C169.879 61.2174 168.407 61.0469 166.937 60.8766C166.137 60.7841 165.338 60.6915 164.543 60.5752Z" fill="white"/>
<path d="M84.8587 60.6947C85.5653 60.6789 86.4057 60.7138 87.0446 61.0233L87.0773 61.288C86.5478 61.5245 85.9931 61.7003 85.4386 61.876C84.8545 62.0611 84.2706 62.2462 83.7163 62.5021C80.3127 64.0746 74.229 67.9847 73.5064 71.8741C73.4013 72.4405 73.3454 73.0352 73.2889 73.6355C73.1604 75.0024 73.0292 76.3982 72.3081 77.5543C71.8437 78.2989 70.7529 78.8989 69.8435 79.3992C69.6148 79.5249 69.3976 79.6445 69.2047 79.7583C69.1358 79.799 69.0403 79.8472 68.9363 79.8997C68.7031 80.0174 68.4272 80.1566 68.3133 80.2811C68.0958 80.5192 67.9519 80.848 67.8048 81.1842C67.6561 81.5239 67.5042 81.8713 67.2696 82.1399C66.8573 81.5283 66.4359 80.9715 65.9408 80.423C65.2915 80.0905 64.356 80.2764 63.4911 80.4483C63.1083 80.5244 62.7394 80.5977 62.4151 80.6222L62.3915 80.6114C61.8805 80.3794 61.8425 80.3622 61.5797 79.8546C61.8449 79.4553 62.1239 79.3489 62.4788 79.2135C62.6108 79.1631 62.7532 79.1088 62.9093 79.0339C63.1652 78.9111 63.3759 78.7324 63.5868 78.5535C63.7565 78.4096 63.9264 78.2655 64.1203 78.1501C64.3748 77.9985 64.5947 77.9173 64.8001 77.8414C65.1434 77.7146 65.4462 77.6028 65.802 77.2024L65.5661 76.9684L60.8496 78.2588C61.2562 77.8093 61.7049 77.4838 62.1558 77.1567C62.4516 76.9422 62.7483 76.7269 63.0348 76.4755C64.0559 75.5793 65.2651 74.1893 65.2709 72.7629C65.2724 72.3894 65.2084 72.3292 64.9952 72.1291C64.966 72.1016 64.9339 72.0715 64.8988 72.0376C63.5524 71.9895 62.5021 72.543 61.3656 73.1944C60.1313 74.1072 59.0701 75.3113 58.4638 76.7286C58.1562 77.448 57.952 78.1665 57.7537 78.8642C57.2599 80.6018 56.8026 82.2106 54.8754 83.3847C54.0667 83.8776 51.66 85.0667 50.7702 84.8601L50.6205 84.5912L50.9617 84.3083C52.9047 83.045 53.0199 80.8564 53.1339 78.6903C53.1844 77.7304 53.2347 76.7749 53.4437 75.9063C53.7063 74.815 54.4715 73.5935 55.1815 72.7288C56.4551 71.1779 58.4646 69.744 60.2434 68.8079C61.8756 67.9489 63.6215 67.3854 65.3687 66.8215C66.2004 66.5531 67.0323 66.2845 67.8525 65.984C69.1793 65.4977 70.4697 64.9882 71.7462 64.4841L71.7479 64.4835C75.9988 62.8049 80.0922 61.1886 84.8587 60.6947Z" fill="white"/>
<path d="M215.284 98.9655C219.326 101.862 221.514 106.67 222.5 111.367C223.887 117.988 222.561 126.188 218.729 131.833C217.395 133.799 215.544 135.605 213.832 137.261C213.107 137.962 212.364 138.635 211.625 139.304C209.546 141.186 207.494 143.043 205.933 145.454L205.842 145.598L205.584 145.314C206.192 143.763 207.21 142.081 208.299 140.796C208.584 140.461 208.919 140.133 209.26 139.8C209.981 139.095 210.728 138.366 211.077 137.481C211.367 136.749 211.378 135.764 211.388 134.906L211.389 134.772C211.39 134.715 211.391 134.66 211.392 134.605C211.392 134.564 211.393 134.524 211.394 134.484L211.395 134.42L211.396 134.373C211.401 134.074 211.399 133.768 211.398 133.46C211.394 132.571 211.39 131.658 211.516 130.806C211.982 127.665 213.676 125.351 215.752 123.09C215.677 123.111 215.6 123.131 215.522 123.151L215.421 123.178L215.419 123.178C214.833 123.331 214.185 123.5 213.694 123.799C211.464 125.156 209.716 128.429 209.533 130.969C209.461 131.966 209.437 133.044 209.543 134.039C209.562 134.224 209.614 134.452 209.667 134.686C209.754 135.066 209.844 135.467 209.813 135.746C209.808 135.795 209.686 135.951 209.6 136.062C209.567 136.104 209.539 136.14 209.525 136.16L209.504 136.152L209.487 136.146C209.345 136.092 209.229 136.049 209.115 135.936C207.348 134.193 206.341 131.117 206.467 128.701C206.647 125.208 208.749 122.092 211.279 119.791L214.729 116.951C216.295 115.528 217.522 113.985 217.639 111.827C217.708 110.559 217.25 109.424 216.791 108.284C216.477 107.506 216.162 106.725 216.014 105.899C215.865 105.073 215.917 104.314 215.968 103.558C216.008 102.979 216.047 102.4 215.997 101.794C215.935 101.052 215.688 100.263 215.455 99.5198C215.396 99.3319 215.338 99.146 215.284 98.9655Z" fill="white"/>
<path d="M169.883 73.2734C169.896 72.7242 169.909 72.1737 169.566 71.7505C168.763 72.8674 168.564 73.9253 168.322 75.2053L168.322 75.2088L168.295 75.3485L168.262 75.5237C167.652 78.7152 167.449 82.2271 167.976 85.4518C168.257 87.1687 169.236 88.7404 170.666 89.7445C172.507 91.0381 174.582 91.9158 176.652 92.791L176.66 92.7942C177.364 93.0919 178.067 93.3892 178.76 93.7027C180.899 94.6703 182.945 95.8578 184.829 97.2544C187.069 98.9149 189.015 101.126 190.729 103.306C190.992 103.64 191.229 103.977 191.463 104.311C191.986 105.055 192.495 105.78 193.247 106.403L193.194 106.253L193.109 106.016C192.871 105.349 192.631 104.68 192.475 103.99C192.251 102.997 191.793 102.111 191.334 101.223C191.185 100.936 191.037 100.649 190.896 100.357C189.763 98.0137 188.455 95.696 186.77 93.682C186.365 93.198 185.927 92.7155 185.485 92.2288C184.608 91.2636 183.717 90.282 183.04 89.2399L183.122 89.2895L183.257 89.3708L183.263 89.3744C183.836 89.7189 184.405 90.0612 184.914 90.5004C186.814 91.9944 188.253 93.81 189.726 95.669L189.733 95.6777C189.882 95.8654 190.031 96.0537 190.181 96.242C190.422 96.5437 190.687 96.8468 190.952 97.1486L190.953 97.1501L190.955 97.1516C191.448 97.7152 191.95 98.287 192.33 98.895C192.723 99.5233 193.081 100.247 193.448 100.986C194.157 102.417 194.896 103.907 195.97 104.884L196.131 104.674L195.986 104.47L195.712 104.07C195.24 103.37 194.772 101.615 194.584 100.764C194.501 100.387 194.336 100.042 194.171 99.6963C194.057 99.4576 193.943 99.2186 193.856 98.9688C193.746 98.6566 193.628 98.3354 193.508 98.0098C193.123 96.963 192.718 95.8639 192.516 94.8222C192.373 94.0832 192.426 93.2265 192.474 92.4367C192.485 92.2574 192.496 92.0809 192.504 91.9103L194.86 93.2687L194.621 92.9305C192.703 90.22 190.793 87.5198 188.157 85.4269C186.758 84.3149 184.853 83.1913 183.181 82.5781C182.138 82.1952 180.585 81.8868 178.923 81.5564C175.799 80.9356 172.283 80.2371 171.013 78.8214C170 77.6916 169.934 75.5209 169.888 74.006L169.888 73.9946C169.885 73.9102 169.883 73.8279 169.88 73.7479C169.875 73.5919 169.879 73.4327 169.883 73.2734Z" fill="white"/>
<path d="M184.934 144.974C186.148 145.02 188.051 145.496 189.083 146.137C190.393 146.95 192.003 147.979 192.741 149.368L192.847 149.576L193.249 150.428C194.251 153.075 194.129 156.501 193.192 159.169C192.986 159.755 192.682 160.327 192.381 160.895L192.38 160.897C192.187 161.26 191.995 161.623 191.829 161.987C191.763 161.624 191.72 161.305 191.68 161.014C191.533 159.948 191.438 159.255 190.528 158.15C189.927 157.891 189.185 157.698 188.524 157.824C187.812 157.961 187.154 158.899 186.697 159.55L186.649 159.617C186.603 159.683 186.559 159.746 186.517 159.803C186.367 160.5 186.376 161.722 186.616 162.394C186.782 162.86 187.325 163.096 187.775 163.247C188.833 163.602 190.142 163.621 191.253 163.574C193.342 163.485 195.641 162.953 197.523 162.053C198.73 161.476 199.854 160.772 200.978 160.069C201.916 159.481 202.857 158.893 203.843 158.379L201.802 161.032C203.05 160.344 204.507 159.506 205.496 158.465C205.994 157.94 206.409 157.314 206.824 156.689C207.326 155.932 207.826 155.178 208.47 154.607C209.225 153.939 210.516 153.441 211.468 153.102C214.729 151.939 217.976 151.673 221.414 151.841C221.572 151.849 221.738 151.854 221.907 151.859C222.692 151.883 223.562 151.91 224.233 152.227L224.341 152.645C223.786 152.914 223.204 153.036 222.617 153.16L222.615 153.16C222.315 153.223 222.014 153.287 221.714 153.37C220.037 153.835 218.483 155.4 217.29 156.609C217.193 156.705 217.09 156.805 216.983 156.907C216.549 157.325 216.067 157.788 215.823 158.289L215.739 158.466C215.492 158.961 215.14 159.443 214.792 159.921L214.789 159.925C214.576 160.218 214.362 160.511 214.176 160.803C213.973 161.122 213.768 161.454 213.558 161.794C212.109 164.141 210.453 166.824 207.807 167.72C205.06 168.651 202.359 167.678 199.908 166.482C200.079 166.341 200.229 166.22 200.434 166.13C202.597 165.184 204.407 163.275 206.058 161.534C206.313 161.265 206.565 161 206.813 160.743C205.604 161.379 204.407 162.155 203.199 162.938C201.079 164.312 198.926 165.708 196.616 166.41C195.651 166.704 194.585 166.787 193.539 166.868C193.063 166.905 192.591 166.942 192.136 166.998C190.781 167.165 189.448 167.562 188.166 168.02C187.341 168.315 186.528 168.652 185.763 169.081C185.57 169.189 185.389 169.303 185.211 169.414C184.603 169.793 184.046 170.141 183.272 170.137C182.747 169.178 182.724 168.268 182.749 167.201C182.816 164.402 183.985 161.745 185.436 159.378C185.684 158.972 185.938 158.577 186.19 158.187L186.193 158.182L186.196 158.178C187.29 156.479 188.336 154.855 188.671 152.756C188.939 151.078 188.824 148.368 187.443 147.142C187.156 146.887 186.841 146.653 186.524 146.419L186.521 146.417C185.938 145.986 185.351 145.553 184.934 144.974Z" fill="white"/>
<path d="M76.5538 179.976C73.8142 178.819 70.6531 178.201 67.6685 178.519L67.6643 178.516C64.0592 179.225 60.3186 180.449 57.5748 183.006C57.1321 183.419 56.7123 183.828 56.3011 184.229C54.6625 185.827 53.1607 187.292 50.8898 188.301C49.5262 188.908 47.749 189.113 46.2365 189.287L45.9575 189.32C45.7494 189.344 45.4855 189.35 45.2017 189.357C44.4651 189.376 43.595 189.397 43.2238 189.739C43.4465 190.299 44.1958 190.613 44.8093 190.871C44.9123 190.914 45.0115 190.956 45.1037 190.997C46.5152 191.624 48.5681 191.639 50.3479 191.652H50.3532C50.8551 191.656 51.336 191.659 51.7737 191.676C51.85 191.679 51.9832 191.677 52.1402 191.675C52.5551 191.669 53.1365 191.661 53.2748 191.734C53.4124 191.806 53.5165 192.035 53.6408 192.308C53.8232 192.71 54.049 193.208 54.4882 193.445C55.3699 193.922 56.8334 193.621 57.934 193.394C58.1362 193.352 58.3262 193.313 58.4981 193.282L58.87 193.215C60.521 192.916 62.1668 192.619 63.7381 191.991L64.8996 191.448L64.7934 191.199L64.6019 191.153C64.1152 191.038 63.7824 190.958 63.3986 190.616C63.422 189.865 64.2022 189.12 64.7491 188.617C67.9988 185.621 73.3844 184.91 77.8992 184.314L77.9049 184.314C78.557 184.228 79.191 184.144 79.7976 184.056C80.1618 184.003 80.5125 183.934 80.8589 183.866C81.6259 183.715 82.3726 183.568 83.2004 183.609C83.6678 183.633 84.0575 183.653 84.479 183.867C84.5534 184.465 84.5141 184.683 84.1136 185.193C83.8575 185.517 83.4009 185.635 83.003 185.737L82.9238 185.758L82.8625 185.774C82.0176 185.999 81.1498 186.134 80.2831 186.268C79.2911 186.422 78.2997 186.576 77.3465 186.866C75.6138 187.392 74.3979 188.239 73.0649 189.447C72.8524 189.639 72.6476 189.846 72.4422 190.053C72.043 190.455 71.6413 190.86 71.1758 191.17C70.7196 191.474 70.1892 191.742 69.6521 192.014L69.6512 192.015C68.7481 192.472 67.8264 192.939 67.2077 193.596C68.3066 193.607 69.2357 193.431 70.2969 193.158L70.4298 193.126C71.6645 192.85 72.9217 192.74 74.1782 192.629C76.1242 192.459 78.0685 192.288 79.9247 191.502C81.1975 190.963 82.5439 190.198 83.6218 189.339C84.0378 189.007 84.4447 188.656 84.8524 188.305C85.8282 187.464 86.8104 186.617 87.9428 186.011C88.9153 185.492 90.1219 185.166 91.214 184.871L91.2186 184.87C91.3166 184.843 91.4136 184.817 91.5094 184.791C92.9378 184.403 94.7483 184.135 96.2276 184.315C96.8224 184.387 97.421 184.561 98.0178 184.735L98.0211 184.735C98.4209 184.852 98.82 184.967 99.2164 185.053C98.1024 183.609 96.514 182.638 94.9288 181.67C94.0804 181.151 93.2328 180.633 92.4594 180.044C92.4644 180.729 93.636 182.161 94.1177 182.721C93.0891 182.77 92.0455 182.799 91.0386 182.542C89.6916 182.199 88.3827 181.599 87.1141 181.017C87.0016 180.965 86.8891 180.914 86.7773 180.863L86.6591 180.809C86.4725 180.724 86.284 180.628 86.0936 180.532C85.4123 180.188 84.7066 179.832 83.9739 179.879C83.802 180.48 84.0917 180.99 84.3925 181.519C84.4737 181.661 84.5556 181.805 84.6295 181.953L78.7381 181.456C74.4439 181.269 69.8369 181.889 65.6598 182.854C64.9129 183.027 64.1864 183.304 63.4612 183.582C62.6453 183.893 61.8308 184.204 60.991 184.365C62.1333 183.488 63.1753 182.951 64.4924 182.395L64.6381 182.333C65.5631 181.942 66.565 181.518 67.5548 181.383L76.5538 179.976Z" fill="white"/>
<path d="M190.195 117.078C190.602 116.557 191.008 116.034 191.404 115.501L191.693 115.635L191.689 115.718C191.659 116.37 191.633 116.941 191.37 117.558C191.182 117.996 191.024 118.407 190.965 118.884C190.459 123 192.647 125.702 194.976 128.578C195.437 129.148 195.905 129.725 196.357 130.32C196.119 130.237 195.898 130.145 195.685 130.056C194.938 129.743 194.292 129.473 193.392 129.808L193.373 129.837L193.361 129.856C193.347 129.877 193.333 129.897 193.319 129.918L193.288 129.963C193.156 130.154 193.04 130.321 193.042 130.578C193.057 131.938 195.401 133.722 197.304 135.169C198.163 135.823 198.933 136.409 199.357 136.855C202.831 140.519 203.183 147.32 201.675 151.912C201.547 152.301 201.309 152.797 201.061 153.317C200.643 154.189 200.194 155.126 200.181 155.734L200.457 155.77C200.754 155.403 201.01 155.008 201.265 154.613C201.495 154.257 201.725 153.901 201.985 153.566C205.663 148.831 209.997 144.415 215.68 142.151C216.283 141.91 216.996 141.713 217.734 141.51C219.234 141.096 220.833 140.655 221.803 139.766C222.389 139.229 222.394 137.999 222.398 137.079C222.399 136.886 222.4 136.705 222.406 136.548C222.516 136.727 222.642 136.913 222.772 137.105L222.773 137.106C223.183 137.713 223.632 138.376 223.739 139.036C223.766 139.206 223.799 139.372 223.832 139.536C223.94 140.083 224.044 140.608 223.919 141.19C223.68 142.304 223.18 143.728 222.392 144.574C221.795 145.214 221.06 145.713 220.324 146.213C219.676 146.653 219.028 147.093 218.472 147.63C218.288 147.808 218.036 148.142 217.77 148.494C217.379 149.012 216.96 149.568 216.691 149.715C216.192 149.988 215.309 150.12 214.492 150.241C214.031 150.31 213.59 150.376 213.251 150.462C211.791 150.833 210.329 151.707 209.063 152.493C210.01 150.926 210.951 149.807 212.427 148.724L212.39 148.344L212.106 148.227C210.334 149.307 208.929 150.471 207.409 151.876L203.79 155.346C201.956 157.023 199.572 158.4 197.245 159.261C197.13 159.303 197.015 159.348 196.899 159.393C196.299 159.626 195.685 159.864 195.042 159.841L194.747 159.428C194.905 158.858 195.365 158.48 195.828 158.1C196.073 157.9 196.319 157.698 196.519 157.467C197.442 156.409 198.618 154.965 199.242 153.714C200.669 150.857 200.558 146.983 199.51 144.03C198.193 140.315 194.294 136.562 190.814 134.824C191.693 136.039 192.737 137.073 193.774 138.101C195.435 139.747 197.079 141.376 197.998 143.702C198.79 145.707 199.144 147.899 199.195 150.044C199.197 150.102 199.199 150.161 199.201 150.219L199.204 150.308C199.225 150.859 199.246 151.419 199.007 151.927C198.897 152.163 198.785 152.435 198.668 152.724C198.222 153.815 197.683 155.135 196.735 155.573C196.454 155.447 196.443 155.415 196.361 155.192C196.349 155.157 196.334 155.117 196.317 155.072C196.835 154.408 197.04 153.516 197.233 152.678L197.233 152.677C197.275 152.497 197.316 152.318 197.359 152.146C197.315 151.978 197.273 151.803 197.23 151.625C197.063 150.938 196.885 150.204 196.58 149.606C195.676 147.828 193.813 146.608 192.087 145.477L192.083 145.474C191.615 145.167 191.156 144.867 190.73 144.564C187.059 141.953 185.5 139.358 184.818 134.989C184.159 130.767 185.23 124.82 187.365 121.087C188.184 119.654 189.188 118.368 190.195 117.078Z" fill="white"/>
<path d="M148.847 191.12C147.302 190.441 145.696 189.736 144.034 189.466C143.116 189.856 142.192 190.445 141.657 191.304C141.782 191.699 141.826 191.775 142.2 191.981C142.47 192.13 142.78 192.179 143.088 192.227C143.247 192.252 143.406 192.277 143.558 192.316C144.159 192.469 144.77 192.687 145.368 192.901C145.548 192.965 145.726 193.029 145.903 193.09C150.503 194.685 154.506 197.743 156.125 202.43C156.785 204.339 156.939 206.837 156.019 208.707C155.625 209.509 155.12 210.195 154.346 210.659C154.24 210.722 154.1 210.824 153.948 210.935C153.652 211.151 153.312 211.399 153.105 211.443C152.835 211.5 152.253 211.374 151.85 211.286C151.744 211.263 151.65 211.242 151.577 211.229L151.417 211.53C152.005 212.918 156.144 214.541 158.125 215.318L158.352 215.408L158.466 215.452C158.555 215.487 158.636 215.52 158.71 215.55C161.144 216.53 163.771 217.333 166.316 218C168.01 218.445 169.862 218.913 171.624 218.9L171.83 218.445C171.618 217.938 171.313 217.545 171.011 217.157C170.6 216.628 170.195 216.108 170.043 215.319C170.405 215.319 170.842 215.726 171.22 216.079C171.371 216.22 171.513 216.352 171.637 216.447C173.289 217.702 176.756 219.976 178.646 218.114L179.728 216.983C179.877 217.001 180.03 217.02 180.187 217.041C180.31 217.058 180.438 217.075 180.566 217.092C182.601 217.369 185.105 217.71 186.708 216.423C187.765 215.575 188.629 213.858 188.732 212.531C188.762 212.147 188.744 212.088 188.521 211.759L188.216 211.909C187.929 212.98 187.077 213.756 186.131 214.353C184.185 214.643 182.481 214.827 180.525 214.454C178.368 214.009 175.559 212.486 173.833 211.095C173.408 210.752 173.017 210.373 172.627 209.994C172.23 209.609 171.833 209.224 171.399 208.877L171.433 208.578C171.453 208.578 171.472 208.578 171.491 208.577L171.525 208.576L171.55 208.575L171.593 208.573C171.7 208.567 171.806 208.561 171.911 208.581C172.314 208.657 172.986 209.208 173.548 209.668C173.809 209.881 174.046 210.075 174.221 210.194C175.766 211.239 177.516 212.158 179.307 212.711C180.155 212.972 181.148 213.015 182.06 213.055L182.16 213.059C182.248 213.063 182.335 213.067 182.421 213.071C182.467 213.073 182.515 213.076 182.563 213.078C183.311 213.117 184.225 213.164 184.758 212.564C185.382 211.862 185.638 210.606 185.838 209.622L185.878 209.428C185.89 209.369 185.902 209.311 185.914 209.255L185.89 209.166C185.875 209.114 185.862 209.062 185.848 209.011L185.819 208.903C185.589 208.03 185.385 207.258 184.512 206.768C184.427 206.72 184.302 206.665 184.166 206.605C183.865 206.473 183.504 206.314 183.379 206.148C183.164 205.859 182.987 205.449 182.816 205.053C182.712 204.812 182.61 204.575 182.503 204.375C182.028 203.486 181.045 202.177 180.126 201.71C179.579 201.432 178.081 201.54 177.449 201.627L177.261 201.962C177.509 202.242 177.801 202.442 178.094 202.644C178.315 202.796 178.537 202.948 178.741 203.135C179.438 203.774 180.22 205.269 180.143 206.21C180.069 207.104 179.619 207.728 178.968 208.309C176.694 208.935 173.693 207.388 171.726 206.285C168.984 204.747 166.756 202.924 164.423 201.013C163.83 200.527 163.23 200.036 162.612 199.542C158.515 196.264 154.219 193.455 149.384 191.354C149.206 191.277 149.026 191.198 148.847 191.12Z" fill="white"/>
<path d="M106.105 189.568C105.763 189.452 105.366 189.455 105.012 189.495C101.035 190.488 96.6926 192.678 93.2397 194.875L88.749 197.993C88.4377 198.23 88.0413 198.542 87.5765 198.908L87.5709 198.913C83.5682 202.065 74.516 209.193 71.1072 206.926C70.6515 206.622 70.4265 206.113 70.342 205.589C70.1347 204.31 70.7518 202.751 71.5203 201.759C72.0003 201.14 72.4737 200.853 73.1862 200.543L73.1042 200.164C72.1099 199.873 70.9048 199.589 69.9381 200.222C69.2265 200.688 68.3066 201.884 67.8709 202.627C67.7972 202.753 67.6739 203.031 67.5299 203.355C67.2277 204.036 66.834 204.923 66.6148 205.049C66.5535 205.084 66.4063 205.071 66.2609 205.059C66.1407 205.049 66.0215 205.039 65.9534 205.056C64.5351 205.406 63.4655 207.768 63.3133 209.069C63.2213 209.854 63.3735 211.122 63.907 211.746C64.6153 212.577 66.3581 212.782 67.3817 212.782C70.9416 212.778 74.7717 210.723 77.4987 208.532L77.7948 208.567L77.9261 208.974C76.5596 211.424 72.2203 213.505 69.602 214.238C68.105 214.658 65.9199 214.71 64.4874 214.085C64.3761 214.028 64.2338 213.96 64.0744 213.885C63.4228 213.577 62.4854 213.133 62.2119 212.689C62.0835 212.481 61.9945 212.23 61.905 211.979C61.8268 211.759 61.7482 211.537 61.6424 211.342L61.6331 211.349L61.5974 211.372L61.5671 211.392C61.3675 211.524 61.3416 211.541 61.292 211.832C61.1155 212.875 61.5313 213.739 61.9619 214.633L62.0016 214.715L62.0469 214.81L62.0877 214.895L62.1082 214.939C62.4728 215.709 63.9522 216.871 64.7817 217.163C65.9872 217.587 67.3864 217.541 68.6872 217.498C68.9223 217.49 69.1542 217.483 69.3812 217.478C69.4325 217.477 69.5208 217.472 69.6299 217.465C70.0351 217.441 70.7269 217.399 70.8764 217.485C71.1063 217.617 71.2721 217.863 71.443 218.117C71.6836 218.474 71.9342 218.846 72.3875 218.935C73.2731 219.109 74.7082 218.915 75.5227 218.5L77.4987 217.358L77.9035 217.743C77.8199 218.108 77.6844 218.368 77.4929 218.689L77.6903 218.996C84.1838 218.524 91.5153 215.964 97.0221 212.546L97.1059 212.494C98.5071 211.623 99.8647 210.78 100.963 209.526C101.734 208.647 102.238 207.533 102.54 206.416L102.451 206.037C102.419 206.041 102.371 206.045 102.317 206.049C102.178 206.059 101.998 206.072 101.938 206.108C101.665 206.266 101.374 206.646 101.081 207.028C100.838 207.346 100.593 207.666 100.357 207.86C99.3544 208.686 96.5329 209.376 95.2785 209.08C94.8871 208.988 94.0743 208.484 93.7648 208.227C93.3712 207.9 93.2403 207.455 93.1046 206.994L93.0927 206.953C93.0827 206.919 93.0726 206.885 93.0624 206.851C92.5364 205.101 93.5307 201.816 94.4071 200.262C96.4241 196.689 100.488 193.952 104.432 192.851C104.547 192.819 104.662 192.787 104.777 192.755C105.906 192.443 107.008 192.137 108.082 191.637L108.289 191.258C107.939 190.514 106.886 189.834 106.105 189.568Z" fill="white"/>
<path d="M173.949 174.704C177.428 173.785 180.538 172.16 181.252 168.373C181.646 166.282 180.662 164.202 179.785 162.364C179.742 162.556 179.701 162.751 179.661 162.946C179.441 163.998 179.216 165.075 178.603 165.962C176.252 169.359 172.295 171.142 168.621 172.798L168.607 172.804C168.439 172.88 168.241 172.963 168.026 173.053C167.087 173.447 165.818 173.98 165.326 174.609C164.887 175.172 164.916 175.715 164.95 176.368L164.955 176.449C165.39 177.242 166.8 177.733 167.658 177.992C167.878 178.366 168.045 178.715 168.181 179.129C167.447 179.375 166.703 179.568 165.961 179.76L165.955 179.762C165.458 179.89 164.96 180.019 164.466 180.164L156.428 182.573C155.915 182.707 155.398 182.786 154.882 182.864C154.093 182.983 153.305 183.103 152.541 183.42C150.758 184.161 149.363 185.121 147.999 186.473L149.945 185.82C152.721 184.751 157.215 184.853 159.887 186.096C161.148 186.683 162.181 187.551 163.218 188.423C164.251 189.291 165.289 190.163 166.56 190.765C169.316 192.068 172.984 192.593 176.018 192.838C176.458 192.874 176.902 192.893 177.345 192.912C178.115 192.944 178.887 192.977 179.644 193.099L183.597 193.838C183.803 193.885 184.022 193.946 184.247 194.009C184.952 194.206 185.72 194.42 186.374 194.284L186.423 193.905C185.844 193.529 185.248 193.193 184.654 192.858C183.761 192.355 182.87 191.852 182.037 191.215C181.17 190.552 180.271 189.757 179.338 188.933C176.012 185.992 172.247 182.665 167.903 183.514C167.719 183.55 167.593 183.61 167.426 183.693L167.479 183.988C168.765 184.468 169.772 184.959 170.915 185.716L170.957 186.043C169.437 186.633 166.641 185.87 165.196 185.248C165.103 185.209 165.007 185.168 164.907 185.126C164.215 184.836 163.403 184.497 162.941 183.959C162.842 183.38 162.847 182.933 163.224 182.429C164.066 181.3 165.863 180.835 167.197 180.694C167.464 180.665 167.734 180.629 168.004 180.593C168.619 180.511 169.239 180.427 169.848 180.435C173.117 180.478 175.893 181.964 178.363 183.98C179.224 184.683 180.059 185.44 180.894 186.197L180.895 186.198C182.177 187.36 183.463 188.525 184.854 189.506C186.231 190.476 187.778 191.181 189.307 191.878L189.412 191.926C190.385 192.37 191.983 193.044 193.07 193.028C193.214 193.026 193.368 192.992 193.508 192.959L193.64 192.58C193.452 192.491 193.246 192.405 193.039 192.318L193.037 192.318C192.341 192.027 191.593 191.715 191.183 191.159L191.293 190.751C191.616 190.811 191.757 190.886 192.026 191.078C192.552 191.451 193.003 191.497 193.527 191.549C193.73 191.569 193.945 191.591 194.179 191.633C194.538 191.698 194.893 191.766 195.244 191.833C197.32 192.229 199.283 192.605 201.48 192.212C203.233 191.898 205.87 190.676 207.234 189.558C206.345 189.497 205.451 189.46 204.559 189.424L204.558 189.424C201.608 189.303 198.664 189.182 195.84 188.185C193.668 187.336 191.609 186.375 189.75 184.947C189.674 184.889 189.596 184.831 189.517 184.772C189.03 184.407 188.513 184.021 188.238 183.484C188.331 183.205 188.539 182.97 188.739 182.744C189.047 182.397 189.334 182.074 189.146 181.652C188.589 180.4 185.948 179.523 184.696 179.144C183.541 178.795 182.199 178.577 180.989 178.519L176.114 178.382C175.963 178.38 175.794 178.389 175.618 178.398C175.147 178.422 174.624 178.449 174.258 178.27C175.016 177.441 176.919 177.145 178.023 177.077C179.633 176.977 181.488 176.973 183.082 177.24C183.385 177.291 183.676 177.384 183.965 177.476C184.362 177.603 184.758 177.73 185.182 177.748C185.758 177.771 186.153 177.643 186.577 177.505C186.818 177.427 187.068 177.345 187.366 177.287C189.573 176.856 192.815 176.589 194.599 178.099C194.824 178.761 194.828 179.007 194.494 179.64L193.236 181.726C193.676 181.672 194.119 181.626 194.563 181.58L194.564 181.579C196.26 181.403 197.967 181.226 199.558 180.599C201.656 179.774 203.653 178.54 205.356 177.077C205.456 176.992 205.597 176.862 205.763 176.709C206.406 176.117 207.425 175.179 207.874 175.132C207.989 175.12 208.243 175.327 208.501 175.539C208.749 175.742 209.003 175.95 209.145 175.973C209.277 175.993 209.678 175.85 209.948 175.753C210.036 175.722 210.11 175.696 210.156 175.681C213.38 174.68 216.322 171.944 218.362 169.352C219.796 167.53 221.452 165.232 222.225 163.057C221.967 163.296 221.708 163.539 221.449 163.785C220.599 164.588 219.735 165.404 218.8 166.079C215.106 168.742 210.696 170.102 206.134 169.952C204.696 169.906 203.418 169.624 202.096 169.332L202.095 169.331L202.093 169.331C201.572 169.216 201.043 169.099 200.495 168.995C196.033 168.146 191.693 168.202 187.376 169.651C185.729 170.204 183.978 170.841 182.681 172.045C182.637 172.086 182.596 172.124 182.556 172.16L182.554 172.162C182.222 172.465 182.031 172.64 181.887 173.125C182.403 173.174 182.864 172.914 183.322 172.657C183.458 172.58 183.594 172.504 183.73 172.436C186.935 170.843 189.723 170.224 193.113 171.677C193.178 171.704 193.243 171.732 193.308 171.759L193.435 171.813C194.234 172.152 195.04 172.492 195.737 173.012L195.874 173.272C195.404 173.561 194.825 173.547 194.258 173.533C194.104 173.529 193.95 173.525 193.801 173.527C192.317 173.55 190.846 173.583 189.369 173.74C189.183 173.76 188.994 173.779 188.805 173.799C186.825 174.009 184.706 174.233 182.795 174.662L177.517 176.107C177.25 176.191 176.985 176.278 176.721 176.365C175.097 176.9 173.502 177.425 171.749 177.02C171.245 176.904 170.872 176.693 170.48 176.359L170.441 175.911C171.277 175.333 172.187 175.122 173.133 174.902C173.402 174.84 173.674 174.776 173.949 174.704Z" fill="white"/>
<path d="M92.0253 116.575C94.0307 117.151 95.0333 118.559 95.0333 120.799V126.815C95.0333 128.437 94.5 129.706 93.4333 130.623C92.388 131.541 90.884 131.999 88.9213 131.999H80.6333L80.6333 101.759L89.2733 101.759C90.98 101.759 92.3453 102.154 93.3693 102.943C94.4147 103.711 94.9373 104.895 94.9373 106.495V112.255C94.9373 113.45 94.692 114.378 94.2013 115.039C93.7107 115.679 92.9853 116.138 92.0253 116.415V116.575ZM87.5773 106.879H87.3213V114.431H87.6413C88.0893 114.431 88.3133 114.143 88.3133 113.567V107.839C88.3133 107.199 88.068 106.879 87.5773 106.879ZM87.5773 118.751H87.3213V126.879H87.5773C88.0893 126.879 88.3453 126.527 88.3453 125.823V119.807C88.3453 119.103 88.0893 118.751 87.5773 118.751Z" fill="white"/>
<path d="M103.281 131.999L103.153 126.463H101.969L101.841 131.999H94.8966L97.0406 101.759H108.209L110.225 131.999H103.281ZM102.129 121.183H103.025L102.769 110.879V107.775H102.385V110.879L102.129 121.183Z" fill="white"/>
<path d="M119.341 116.543L118.829 109.695V101.759H125.197V131.999H118.765L116.685 116.607H116.365L116.845 123.935V131.999H110.477V101.759H116.973L119.021 116.543H119.341Z" fill="white"/>
<path d="M135.122 116.543L134.61 109.695V101.759H140.978V131.999H134.546L132.466 116.607H132.146L132.626 123.935V131.999H126.258V101.759H132.754L134.802 116.543H135.122Z" fill="white"/>
<path d="M148.728 126.399H153.72V131.999H142.04V101.759H153.624V107.359H148.728V113.887H153.432V119.135H148.728V126.399Z" fill="white"/>
<path d="M169.356 131.999H162.38L161.804 121.791H161.228V131.999H154.54V101.759H162.732C164.865 101.759 166.433 102.271 167.436 103.295C168.46 104.298 168.972 105.727 168.972 107.583V114.911C168.972 116.469 168.609 117.727 167.884 118.687L169.356 131.999ZM161.228 116.831H161.388C161.878 116.831 162.124 116.341 162.124 115.359V108.511C162.124 107.743 161.878 107.359 161.388 107.359H161.228V116.831Z" fill="white"/>
<path d="M92.6026 160.399H97.5946V165.999H85.9146V135.759H97.4986V141.359H92.6026V147.887H97.3066V153.135H92.6026V160.399Z" fill="white"/>
<path d="M106.063 135.759C108.217 135.759 109.892 136.303 111.087 137.391C112.281 138.479 112.879 140.133 112.879 142.351V159.599C112.879 161.733 112.271 163.333 111.055 164.399C109.839 165.466 108.175 165.999 106.063 165.999H98.4146V135.759H106.063ZM106.031 159.695V142.063C106.031 141.594 105.839 141.359 105.455 141.359H105.103V160.399H105.423C105.828 160.399 106.031 160.165 106.031 159.695Z" fill="white"/>
<path d="M113.79 135.759H120.478V165.999H113.79V135.759Z" fill="white"/>
<path d="M133.572 135.759V141.327H130.66V165.999H123.972V141.359H120.996V135.759H133.572Z" fill="white"/>
<path d="M141.019 135.471C143.515 135.471 145.361 136.09 146.555 137.327C147.771 138.543 148.379 140.506 148.379 143.215V158.575C148.379 161.285 147.771 163.247 146.555 164.463C145.361 165.679 143.515 166.287 141.019 166.287C138.609 166.287 136.785 165.679 135.547 164.463C134.331 163.226 133.723 161.263 133.723 158.575V143.215C133.723 140.527 134.331 138.565 135.547 137.327C136.785 136.09 138.609 135.471 141.019 135.471ZM141.499 160.431V141.359C141.499 140.933 141.35 140.719 141.051 140.719C140.753 140.719 140.603 140.933 140.603 141.359V160.431C140.603 160.837 140.742 161.039 141.019 161.039C141.339 161.039 141.499 160.837 141.499 160.431Z" fill="white"/>
<path d="M164.074 165.999H157.098L156.522 155.791H155.946L155.946 165.999H149.258L149.258 135.759H157.45C159.584 135.759 161.152 136.271 162.154 137.295C163.178 138.298 163.69 139.727 163.69 141.583V148.911C163.69 150.469 163.328 151.727 162.602 152.687L164.074 165.999ZM155.946 150.831H156.106C156.597 150.831 156.842 150.341 156.842 149.359V142.511C156.842 141.743 156.597 141.359 156.106 141.359H155.946V150.831Z" fill="white"/>
</g>
</g>
</svg>
